<?xml version="1.0" encoding="UTF-8"?>
<svg id="Layer_2" data-name="Layer 2" xmlns="http://www.w3.org/2000/svg" viewBox="0 0 725.53 150">
  <defs>
    <style>
      .cls-1 {
        fill: #fff;
        stroke-width: 0px;
      }
    </style>
  </defs>
  <g id="Layer_1-2" data-name="Layer 1">
    <g>
      <path class="cls-1" d="m54.55,89.75v15.85l-8.41-3.77-8.41,3.77v-15.85h16.83Zm-34.54-16.13h67.02c2.14,0,3.88-1.74,3.88-3.88V3.88c0-2.15-1.74-3.88-3.88-3.88H20.01C8.97,0,0,8.98,0,20.01v38.18c0,2.14,1.74,3.88,3.88,3.88s3.88-1.74,3.88-3.88V20.01c0-6.75,5.49-12.25,12.24-12.25h63.14v58.1H20.01c-11.03,0-20.01,8.98-20.01,20.01s8.97,20.01,20.01,20.01h9.95v11.72l16.18-7.25,16.18,7.25v-11.72h24.71c2.14,0,3.88-1.74,3.88-3.88s-1.74-3.88-3.88-3.88h-24.71v-8.36h24.71c2.14,0,3.88-1.74,3.88-3.88s-1.74-3.88-3.88-3.88H20.01c-2.14,0-3.88,1.74-3.88,3.88s1.74,3.88,3.88,3.88h9.95v8.36h-9.95c-6.75,0-12.24-5.49-12.24-12.25s5.49-12.24,12.24-12.24h0Z"/>
      <g>
        <path class="cls-1" d="m160.14,27.51h7.21v54.88h-7.21v-24.7h-26.66v24.7h-7.29V27.51h7.29v23.29h26.66v-23.29Z"/>
        <path class="cls-1" d="m196.83,83.41c-5.72,0-10.66-1.96-14.66-5.96s-5.96-8.86-5.96-14.66,1.96-10.66,5.96-14.66c4-4,8.94-5.96,14.66-5.96s10.66,1.96,14.66,5.96,6.04,8.86,6.04,14.66-2.04,10.66-6.04,14.66c-4,4-8.94,5.96-14.66,5.96Zm9.88-10.66c2.67-2.67,4-5.96,4-9.96s-1.33-7.29-4-9.96-5.96-4-9.88-4-7.13,1.33-9.8,4c-2.67,2.67-4,5.96-4,9.96s1.33,7.29,4,9.96c2.67,2.67,5.96,4,9.8,4s7.21-1.33,9.88-4Zm-14.5,20.93c0-2.51,2.04-4.63,4.63-4.63s4.55,2.12,4.55,4.63-2.04,4.55-4.55,4.55-4.63-2.04-4.63-4.55Z"/>
        <path class="cls-1" d="m229.28,77.53c-3.92-4-5.88-8.86-5.88-14.74s1.96-10.74,5.88-14.66c3.92-4,8.86-5.96,14.74-5.96,7.76,0,14.27,4,17.33,10.27l-5.72,3.29c-1.96-4.16-6.35-6.9-11.6-6.9-3.92,0-7.21,1.33-9.88,4-2.59,2.67-3.92,5.96-3.92,9.96s1.33,7.21,3.92,9.88c2.67,2.67,5.96,4,9.88,4,5.25,0,9.64-2.67,11.84-6.82l5.8,3.37c-3.37,6.19-10.04,10.19-17.64,10.19-5.88,0-10.82-1.96-14.74-5.88Z"/>
        <path class="cls-1" d="m323.91,27.51v6.9h-16.23v47.98h-7.21v-47.98h-16.15v-6.9h39.59Z"/>
        <path class="cls-1" d="m329.23,33.78c0-2.51,2.04-4.63,4.63-4.63s4.55,2.12,4.55,4.63-2.04,4.55-4.55,4.55-4.63-2.04-4.63-4.55Zm1.18,48.61v-39.2h6.82v39.2h-6.82Z"/>
        <path class="cls-1" d="m352.44,65.93c1.33,6.98,6.74,11.05,14.19,11.05,5.17,0,8.94-1.88,11.29-5.72l5.8,3.29c-3.84,5.88-9.57,8.86-17.25,8.86-6.19,0-11.29-1.96-15.21-5.8-3.84-3.92-5.8-8.86-5.8-14.82s1.88-10.82,5.72-14.74c3.84-3.92,8.78-5.88,14.82-5.88,5.72,0,10.43,2.04,14.03,6.12,3.68,4,5.49,8.86,5.49,14.58,0,1.02-.08,2.04-.24,3.06h-32.85Zm0-5.96h26.19c-1.18-7.45-6.35-11.37-12.62-11.37-7.29,0-12.39,4.47-13.56,11.37Zm13.8-27.91l-4.47,5.96h-6.82l7.76-9.88h6.98l7.76,9.88h-6.82l-4.39-5.96Zm13.64-10.9h7.76l-7.45,9.64h-6.12l5.8-9.64Z"/>
        <path class="cls-1" d="m428.1,58.33v24.07h-6.82v-23.68c0-6.35-3.68-10.04-9.72-10.04-6.82,0-11.37,4.15-11.37,12.94v20.78h-6.82v-39.2h6.82v5.64c2.74-4.47,6.98-6.66,12.7-6.66,9.17,0,15.21,6.19,15.21,16.15Z"/>
        <path class="cls-1" d="m470.11,43.19h6.74v37.55c0,5.8-1.96,10.27-5.88,13.49-3.92,3.21-8.62,4.86-14.11,4.86-8.78,0-15.37-3.37-18.58-9.57l5.96-3.37c2.12,4.39,6.43,6.59,12.78,6.59,8.15,0,13.09-4.55,13.09-12v-5.57c-3.45,5.25-8.39,7.84-14.74,7.84-5.57,0-10.35-1.96-14.19-5.96-3.84-4-5.8-8.78-5.8-14.5s1.96-10.51,5.8-14.43c3.84-4,8.62-5.96,14.19-5.96,6.43,0,11.37,2.59,14.74,7.76v-6.74Zm-4,9.49c-2.67-2.67-5.96-4-9.96-4s-7.29,1.33-9.96,4c-2.67,2.67-4,5.96-4,9.88s1.33,7.29,4,9.96c2.67,2.67,5.96,4,9.96,4s7.29-1.33,9.96-4c2.67-2.67,4-5.96,4-9.96s-1.33-7.21-4-9.88Z"/>
        <path class="cls-1" d="m521.85,82.4l-19.6-54.88h7.84l15.92,45.79,15.84-45.79h7.92l-19.68,54.88h-8.23Z"/>
        <path class="cls-1" d="m554.31,33.78c0-2.51,2.04-4.63,4.63-4.63s4.55,2.12,4.55,4.63-2.04,4.55-4.55,4.55-4.63-2.04-4.63-4.55Zm1.18,48.61v-39.2h6.82v39.2h-6.82Z"/>
        <path class="cls-1" d="m577.51,65.93c1.33,6.98,6.74,11.05,14.19,11.05,5.17,0,8.94-1.88,11.29-5.72l5.8,3.29c-3.84,5.88-9.57,8.86-17.25,8.86-6.19,0-11.29-1.96-15.21-5.8-3.84-3.92-5.8-8.86-5.8-14.82s1.88-10.82,5.72-14.74c3.84-3.92,8.78-5.88,14.82-5.88,5.72,0,10.43,2.04,14.03,6.12,3.68,4,5.49,8.86,5.49,14.58,0,1.02-.08,2.04-.24,3.06h-32.85Zm0-5.96h26.19c-1.18-7.45-6.35-11.37-12.62-11.37-7.29,0-12.39,4.47-13.56,11.37Zm13.8-27.91l-4.47,5.96h-6.82l7.76-9.88h6.98l7.76,9.88h-6.82l-4.39-5.96Zm-4.39,61.63c0-2.51,2.04-4.63,4.63-4.63s4.55,2.12,4.55,4.63-2.04,4.55-4.55,4.55-4.63-2.04-4.63-4.55Z"/>
        <path class="cls-1" d="m639.76,49.78h-10.43v21.25c0,6.04,3.45,5.57,10.43,5.25v6.12c-11.92,1.57-17.25-1.65-17.25-11.37v-21.25h-7.76v-6.59h7.76v-8.94l6.82-2.04v10.98h10.43v6.59Z"/>
        <path class="cls-1" d="m647.29,78.16c0-2.82,2.27-5.1,5.1-5.1s5.1,2.27,5.1,5.1-2.19,5.1-5.1,5.1-5.1-2.27-5.1-5.1Z"/>
        <path class="cls-1" d="m703.97,82.4l-4.47-12.31h-24.7l-4.47,12.31h-7.76l20.46-54.88h8.23l20.46,54.88h-7.76Zm-26.66-19.13h19.68l-9.88-27.05-9.8,27.05Z"/>
        <path class="cls-1" d="m718.23,27.51h7.29v54.88h-7.29V27.51Z"/>
      </g>
      <g>
        <path class="cls-1" d="m141.32,114.25v2.59h-8.43v24.85h-2.74v-24.85h-8.43v-2.59h19.6Z"/>
        <path class="cls-1" d="m144.81,118.68c-.74-.74-.74-1.92,0-2.67s1.92-.74,2.67,0,.74,1.92,0,2.67-1.92.74-2.67,0Zm.04,23.01v-19.6h2.59v19.6h-2.59Z"/>
        <path class="cls-1" d="m168.99,124.71c1.8,2.04,2.71,4.47,2.71,7.25,0,.27-.04.7-.08,1.22h-17.21c.51,3.96,3.61,6.47,7.8,6.47,2.98,0,5.21-1.33,6.31-3.33l2.27,1.33c-1.72,2.78-4.82,4.51-8.62,4.51-3.1,0-5.61-.98-7.53-2.9-1.92-1.92-2.9-4.39-2.9-7.37s.94-5.37,2.86-7.33c1.92-1.96,4.35-2.94,7.37-2.94s5.25,1.02,7.02,3.1Zm-14.58,5.96h14.62c-.27-2.08-1.06-3.69-2.39-4.82-1.33-1.14-2.9-1.73-4.67-1.73-4.08,0-7.06,2.67-7.57,6.55Zm7.72-14.5l-2.55,3.18h-2.74l3.88-4.74h2.82l3.88,4.74h-2.74l-2.55-3.18Zm9.57-4.98l-3.49,4.74h-2.35l2.94-4.74h2.9Z"/>
        <path class="cls-1" d="m192.67,129.65v12.04h-2.59v-12.04c0-3.49-1.92-5.53-5.33-5.53-3.76,0-6.35,2.31-6.35,7.29v10.27h-2.59v-19.6h2.59v3.06c1.45-2.35,3.65-3.53,6.59-3.53,4.74,0,7.68,3.14,7.68,8.04Z"/>
        <path class="cls-1" d="m214.54,122.09h2.59v18.82c0,2.82-.98,5.06-2.9,6.66s-4.23,2.43-6.94,2.43c-4.59,0-7.68-1.61-9.29-4.78l2.27-1.3c1.18,2.39,3.53,3.57,7.02,3.57,4.51,0,7.25-2.55,7.25-6.59v-3.06c-1.8,2.86-4.43,4.31-7.92,4.31-2.78,0-5.17-.98-7.17-2.98-1.96-2-2.94-4.43-2.94-7.29s.98-5.29,2.94-7.29c2-2,4.39-2.98,7.17-2.98,3.49,0,6.12,1.45,7.92,4.31v-3.84Zm-7.72,17.56c2.16,0,4-.75,5.49-2.24,1.49-1.53,2.23-3.37,2.23-5.53s-.74-4-2.23-5.49c-1.49-1.53-3.33-2.27-5.49-2.27s-4,.75-5.49,2.27c-1.49,1.49-2.23,3.33-2.23,5.49s.74,4,2.23,5.53c1.49,1.49,3.33,2.24,5.49,2.24Z"/>
        <path class="cls-1" d="m240.18,141.69l-10.11-27.44h2.98l8.55,23.8,8.55-23.8h2.98l-10.11,27.44h-2.82Z"/>
        <path class="cls-1" d="m255.43,118.68c-.74-.74-.74-1.92,0-2.67s1.92-.74,2.67,0,.74,1.92,0,2.67-1.92.74-2.67,0Zm.04,23.01v-19.6h2.59v19.6h-2.59Z"/>
        <path class="cls-1" d="m279.61,124.71c1.8,2.04,2.71,4.47,2.71,7.25,0,.27-.04.7-.08,1.22h-17.21c.51,3.96,3.61,6.47,7.8,6.47,2.98,0,5.21-1.33,6.31-3.33l2.27,1.33c-1.72,2.78-4.82,4.51-8.62,4.51-3.1,0-5.61-.98-7.53-2.9-1.92-1.92-2.9-4.39-2.9-7.37s.94-5.37,2.86-7.33,4.35-2.94,7.37-2.94,5.25,1.02,7.02,3.1Zm-14.58,5.96h14.62c-.27-2.08-1.06-3.69-2.39-4.82-1.33-1.14-2.9-1.73-4.67-1.73-4.08,0-7.06,2.67-7.57,6.55Zm7.72-14.5l-2.55,3.18h-2.74l3.88-4.74h2.82l3.88,4.74h-2.74l-2.55-3.18Zm-1.37,32.07c-.74-.74-.74-1.92,0-2.67.74-.74,1.92-.74,2.67,0,.74.75.74,1.92,0,2.67s-1.92.74-2.67,0Z"/>
        <path class="cls-1" d="m296.82,124.6h-5.65v11.88c0,3.37,1.88,3.1,5.65,2.94v2.27c-5.49.82-8.23-.67-8.23-5.22v-11.88h-4.12v-2.51h4.12v-4.7l2.59-.78v5.49h5.65v2.51Z"/>
        <path class="cls-1" d="m312.69,139.22c-1.96-2-2.94-4.43-2.94-7.33s.98-5.33,2.94-7.29c1.96-2,4.43-2.98,7.37-2.98,3.88,0,7.17,2,8.59,5.13l-2.12,1.22c-1.06-2.35-3.53-3.84-6.47-3.84-2.16,0-4,.75-5.49,2.27-1.49,1.49-2.23,3.33-2.23,5.49s.74,4,2.23,5.53c1.49,1.49,3.33,2.24,5.49,2.24,2.94,0,5.33-1.49,6.63-3.84l2.16,1.26c-1.61,3.14-4.98,5.09-8.78,5.09-2.94,0-5.41-.98-7.37-2.94Z"/>
        <path class="cls-1" d="m346.36,122.09h2.59v19.6h-2.59v-3.06c-1.45,2.35-3.65,3.53-6.59,3.53-4.74,0-7.68-3.14-7.68-8.04v-12.04h2.59v12.04c0,3.49,1.92,5.53,5.33,5.53,3.76,0,6.35-2.31,6.35-7.29v-10.27Zm-3.57-2.74h-2.51l-3.76-5.1h3.14l3.14,5.1Z"/>
        <path class="cls-1" d="m371.3,129.65v12.04h-2.59v-12.04c0-3.49-1.92-5.53-5.33-5.53-3.76,0-6.35,2.31-6.35,7.29v10.27h-2.59v-19.6h2.59v3.06c1.45-2.35,3.64-3.53,6.59-3.53,4.74,0,7.68,3.14,7.68,8.04Z"/>
        <path class="cls-1" d="m393.17,122.09h2.59v18.82c0,2.82-.98,5.06-2.9,6.66-1.92,1.61-4.23,2.43-6.94,2.43-4.59,0-7.68-1.61-9.29-4.78l2.27-1.3c1.18,2.39,3.53,3.57,7.02,3.57,4.51,0,7.25-2.55,7.25-6.59v-3.06c-1.8,2.86-4.43,4.31-7.92,4.31-2.78,0-5.17-.98-7.17-2.98-1.96-2-2.94-4.43-2.94-7.29s.98-5.29,2.94-7.29c2-2,4.39-2.98,7.17-2.98,3.49,0,6.12,1.45,7.92,4.31v-3.84Zm-7.72,17.56c2.16,0,4-.75,5.49-2.24,1.49-1.53,2.23-3.37,2.23-5.53s-.74-4-2.23-5.49c-1.49-1.53-3.33-2.27-5.49-2.27s-4,.75-5.49,2.27c-1.49,1.49-2.23,3.33-2.23,5.49s.74,4,2.23,5.53c1.49,1.49,3.33,2.24,5.49,2.24Z"/>
        <path class="cls-1" d="m429.7,141.69l-2.55-6.74h-13.02l-2.55,6.74h-2.9l10.54-27.44h2.82l10.54,27.44h-2.9Zm-14.58-9.33h11.05l-5.53-14.7-5.53,14.7Z"/>
        <path class="cls-1" d="m436.13,114.25h2.74v27.44h-2.74v-27.44Z"/>
      </g>
    </g>
  </g>
</svg>