<?xml version="1.0" encoding="UTF-8"?>
<svg id="Layer_2" data-name="Layer 2" xmlns="http://www.w3.org/2000/svg" viewBox="0 0 2377.08 1575.67">
  <defs>
    <style>
      .cls-1 {
        fill: #9bbcb6;
      }

      .cls-1, .cls-2, .cls-3, .cls-4, .cls-5, .cls-6, .cls-7, .cls-8, .cls-9, .cls-10, .cls-11, .cls-12, .cls-13, .cls-14, .cls-15, .cls-16, .cls-17, .cls-18, .cls-19, .cls-20, .cls-21, .cls-22, .cls-23, .cls-24, .cls-25, .cls-26, .cls-27, .cls-28 {
        stroke-width: 0px;
      }

      .cls-2 {
        fill: #e08b65;
      }

      .cls-3 {
        fill: #060633;
      }

      .cls-4 {
        fill: #96a7e2;
      }

      .cls-5 {
        fill: #db6b49;
      }

      .cls-6 {
        fill: #020202;
      }

      .cls-7 {
        fill: #56335b;
      }

      .cls-29 {
        opacity: .5;
      }

      .cls-30 {
        opacity: .6;
      }

      .cls-8 {
        fill: #eaa97d;
      }

      .cls-9 {
        fill: #42428e;
      }

      .cls-10 {
        fill: #264c63;
      }

      .cls-11 {
        fill: #436e8e;
      }

      .cls-12 {
        fill: #2f1a31;
      }

      .cls-13 {
        fill: #6f4975;
      }

      .cls-14 {
        fill: #b2c9c6;
      }

      .cls-15 {
        fill: #deebe9;
      }

      .cls-16 {
        fill: #b7b784;
      }

      .cls-17 {
        fill: #fff;
      }

      .cls-31 {
        opacity: .3;
      }

      .cls-18 {
        fill: #e7f2f0;
      }

      .cls-19 {
        fill: #74a1bd;
      }

      .cls-20 {
        fill: #e28569;
      }

      .cls-21 {
        fill: #dd8964;
      }

      .cls-22 {
        fill: #e6edff;
      }

      .cls-23 {
        fill: #cfd3a3;
      }

      .cls-24 {
        fill: #bed5dc;
      }

      .cls-25 {
        fill: #ced891;
      }

      .cls-26 {
        fill: #c4c695;
      }

      .cls-27 {
        fill: #d3715b;
      }

      .cls-28 {
        fill: #f7b686;
      }
    </style>
  </defs>
  <g id="_Layer_" data-name="&amp;lt;Layer&amp;gt;">
    <g>
      <path class="cls-15" d="m2067.18,1561.41c-197.88,25-401.75,14.58-818.31-11.58-233.91-14.69-704.21,9.65-938.97,11.58C138.75,1562.81,0,1433.87,0,1276.55V295.45C0,138.13,139.04,1.34,309.9,10.59c158.67,8.59,392.05,42.61,635.34,21.78C1234.58,7.6,1783.79-13.45,2067.18,10.59c170.43,14.46,309.9,127.53,309.9,284.85v981.11c0,157.32-140.34,263.43-309.9,284.85Z"/>
      <ellipse class="cls-24" cx="1240.33" cy="1273.26" rx="951.3" ry="136.07"/>
      <path class="cls-9" d="m781.08,1318.24l-.73-1.1c.08-.05,7.55-5.04,8.58-10.86.36-2.02-.12-3.93-1.41-5.68-.92-1.24-2.05-1.85-3.39-1.81-6.48.09-15.88,13.48-15.97,13.61l-1.71,2.46.52-2.95c.02-.12,2.05-11.95-2.08-15.48-1.28-1.1-3.12-1.26-5.44-.46-2.45.83-4.15,2.36-5.06,4.54-2.71,6.5,2.24,16.79,2.29,16.9l-1.19.58c-.21-.44-5.26-10.92-2.32-17.98,1.06-2.55,3.03-4.33,5.85-5.29,2.8-.95,5.06-.71,6.73.71,3.44,2.94,3.24,10.25,2.85,14.16,3.03-3.92,9.97-12.04,15.51-12.12,1.8-.03,3.3.76,4.47,2.35,1.52,2.05,2.07,4.31,1.65,6.7-1.13,6.38-8.82,11.51-9.15,11.73Z"/>
      <g>
        <path class="cls-24" d="m1228.97,1195.23s-32.22-32.85-21.13-51.55c11.09-18.71,29.79,40.19,29.79,40.19,0,0-9.7-69.64,10.39-70.85,20.09-1.21,0,70.85,0,70.85,0,0,7.45-16.8,14.72-17.84,7.27-1.04,5.2,14.25-7.79,29.21h-25.98Z"/>
        <path class="cls-9" d="m1231.27,1196.06c-.09-.09-9.31-9.54-16.85-21.48-10.29-16.29-12.75-29.21-7.29-38.43,2.04-3.44,4.48-5.02,7.27-4.7,5.56.63,12.08,9.41,19.4,26.08,2.23,5.08,4.2,10.15,5.75,14.35-1.77-18.23-3.83-54.54,6.2-66.8,2.18-2.66,4.84-4.1,7.9-4.29,2.99-.18,5.44.89,7.29,3.18,9.02,11.17.87,50.63-3.61,69.1,3.34-5.41,8.09-11.45,12.93-12.14,2.3-.33,4.12.53,5.14,2.41,2.92,5.37-1.11,19.05-12.93,32.66l-1.78-1.54c11.62-13.38,14.8-26.01,12.64-29.99-.55-1.01-1.42-1.39-2.74-1.2-6.23.89-13.51,14.41-15.79,19.55l-2.21-.79c.04-.16,4.45-16.03,7.4-33.41,3.86-22.73,3.56-37.65-.89-43.15-1.36-1.69-3.11-2.43-5.31-2.31-2.41.14-4.45,1.27-6.22,3.43-12.67,15.47-4.56,74.99-4.47,75.59l-2.29.52c-4.2-13.23-17.19-47.82-26.68-48.9-1.8-.2-3.43.96-4.98,3.56-11.97,20.21,23.44,56.68,23.8,57.05l-1.68,1.65Z"/>
      </g>
      <g>
        <path class="cls-14" d="m1046.66,266.54c9.44,11.79,16,12.3,20.62,8.6,4.62-3.7,5.56-10.21-3.88-22-17.2-21.48-33.89-25.17-33.89-25.17,0,0-.31,16.77,17.15,38.57Z"/>
        <path class="cls-14" d="m1012.35,358.23c5.12,14.21,11.16,16.82,16.73,14.81,5.57-2.01,8.57-7.86,3.45-22.08-9.33-25.89-23.92-34.78-23.92-34.78,0,0-5.72,15.77,3.75,42.04Z"/>
        <g>
          <path class="cls-14" d="m927.08,598.41l2.75.79c.12-.42,12.54-43.03,49.54-98.25,34.14-50.96,96.79-123.39,201.37-179.08l-1.34-2.52c-105.16,56-168.15,128.86-202.47,180.12-37.21,55.58-49.72,98.52-49.84,98.95Z"/>
          <path class="cls-14" d="m1067.56,397.37l2.8-.58c-21.13-101.68,48.28-188.83,48.98-189.7l-2.22-1.8c-.71.88-70.97,89.05-49.56,192.08Z"/>
          <path class="cls-14" d="m1124.34,369.39c27.13,10.36,52.83,4.61,53.12,4.54l-.65-2.78c-.33.08-33.24,7.41-63.32-10.08l-1.44,2.47c4.07,2.37,8.19,4.29,12.28,5.85Z"/>
          <path class="cls-14" d="m954.57,539.94c57.26,14.71,111.94,4.94,162.53-29.05,1.75-1.18,3.41-2.29,3.83-2.44,0,0-.13.04-.33.04l.12-2.86c-.84-.04-1.56.42-5.22,2.89-49.89,33.51-103.8,43.15-160.23,28.66l-.71,2.77Z"/>
          <path class="cls-14" d="m1043.14,540.8l2.85.29c3.88-38.62,46.87-81.17,47.3-81.59l-2-2.04c-.11.11-11.15,10.98-22.52,26.57-10.54,14.44-23.54,36.01-25.62,56.78Z"/>
          <path class="cls-14" d="m1188.21,307.65c-19,7.35-22.92,14.02-20.79,19.54,2.14,5.52,9.52,7.81,28.52.46,34.61-13.39,47.48-29.87,47.48-29.87,0,0-20.09-3.72-55.21,9.87Z"/>
          <path class="cls-14" d="m1173.6,362.55c-20.33,1.28-26.08,6.45-25.71,12.36.37,5.91,6.72,10.32,27.06,9.04,37.04-2.33,54.27-14.16,54.27-14.16,0,0-18.04-9.61-55.62-7.24Z"/>
          <path class="cls-14" d="m1088.65,447.77c-11.26,10.08-11.4,16.65-7.45,21.06,3.95,4.41,10.5,4.99,21.76-5.09,20.5-18.36,23.26-35.22,23.26-35.22,0,0-16.76.62-37.57,19.24Z"/>
          <path class="cls-14" d="m1113.27,316.4c-8.47,12.51-7.01,18.92-2.1,22.24,4.91,3.32,11.4,2.29,19.87-10.23,15.42-22.8,14-39.82,14-39.82,0,0-16.11,4.68-31.76,27.8Z"/>
          <path class="cls-14" d="m1013.21,513.16c-4.61,14.39-1.41,20.13,4.23,21.94,5.64,1.81,11.58-1.01,16.19-15.4,8.39-26.21,2.24-42.15,2.24-42.15,0,0-14.15,9.02-22.66,35.61Z"/>
          <path class="cls-14" d="m1105.95,503.9c-13.15,7.43-14.7,13.82-11.79,18.98,2.91,5.16,9.19,7.12,22.34-.31,23.96-13.54,30.26-29.42,30.26-29.42,0,0-16.51-2.99-40.82,10.75Z"/>
          <path class="cls-14" d="m1115.62,192.32c-11.5,16.82-10.96,24.53-6.08,27.87,4.89,3.34,12.27,1.05,23.77-15.76,20.96-30.63,22.23-51.49,22.23-51.49,0,0-18.67,8.31-39.93,39.39Z"/>
        </g>
      </g>
      <path class="cls-14" d="m672.21,984.76s-289.2-369.97-386.64-287.72c-97.44,82.25,248.72,204.97,329.5,315.34l57.15-27.62Z"/>
      <g>
        <path class="cls-1" d="m551.2,927s-313.46-262.29-399.02-166.89c-85.56,95.41,258.61,125.02,346.84,204.53l52.18-37.64Z"/>
        <path class="cls-19" d="m522.2,948.31c-59.94-56.02-143.81-95.8-203.62-119.31-64.84-25.49-116.11-37.86-116.62-37.98l.76-3.19c.51.12,52.01,12.55,117.06,38.12,60.07,23.61,144.34,63.59,204.65,119.96l-2.24,2.4Z"/>
      </g>
      <g>
        <path class="cls-23" d="m398.24,1179.42c67.76-13.67,98.44,84.52,161.38,36.3,62.92-48.27,55.1-50.23,102.42-34.42,0,0,26.16,23.84,56.37,16.49,119.18-28.98,198.94-258.85,44.02-298.56-11.19-2.87-24.42-.07-38.78,3.7-77.87,20.5-85.95,63.9-180.94,3.1-95.02-60.81-119.09,96.47-169.87,113.51-50.78,17.04-100.27,21.22-115.71,89.68-15.42,68.5,73.38,83.92,141.12,70.2Z"/>
        <g>
          <path class="cls-26" d="m779.24,1033.74l.81-4.47c-1.97-.36-201.01-34.39-525.27,98.5l1.72,4.21c323.05-132.39,520.77-98.6,522.74-98.24Z"/>
          <path class="cls-26" d="m525.31,997.14c25.67-56.62,19.89-90.13,19.63-91.53l-4.47.82c.06.33,5.71,33.65-19.3,88.83l4.14,1.88Z"/>
          <path class="cls-26" d="m537.64,1045.28c2.72-26.17-11.62-55.88-41.47-85.94-22.35-22.51-45.84-37.56-46.07-37.7l-2.44,3.83c.92.58,91.73,59.18,85.46,119.34l4.52.47Z"/>
          <path class="cls-26" d="m449.99,1074.99c3.2-6.42,4.72-10.35,4.79-10.53l-4.25-1.61c-.31.83-32.51,83.6-118.37,118.12l1.7,4.22c69.18-27.81,104.24-86.27,116.14-110.19Z"/>
          <path class="cls-26" d="m450.49,1189.51c9.9-30.03,5.99-54.01.96-68.83-5.47-16.13-13.24-25.05-13.57-25.42l-3.41,3.01c.3.34,29.83,34.83,11.7,89.83l4.32,1.42Z"/>
        </g>
      </g>
      <g class="cls-30">
        <path class="cls-14" d="m1143.75,804.88s190.33-672.02,370.74-613.52c180.41,58.5-227.31,422.05-276.52,619.44l-94.22-5.92Z"/>
      </g>
      <g>
        <g class="cls-30">
          <path class="cls-14" d="m1278.46,769.64s232.89-402.91,361.65-334.26c128.76,68.65-227.81,234.67-291.15,354.15l-70.5-19.89Z"/>
        </g>
        <path class="cls-14" d="m1317.8,781.12c42.24-83.31,116.43-158.6,171.22-207.1,59.4-52.57,109.42-85.82,109.92-86.15l-2.06-3.11c-.5.33-50.73,33.72-110.33,86.47-55.04,48.71-129.57,124.37-172.07,208.2l3.33,1.69Z"/>
      </g>
      <g>
        <g>
          <path class="cls-7" d="m1065.93,1146.07v-138.56h-279.49v138.56c0,36.01-23.96,65.19-53.52,65.19h-11.26v17.89h409.05v-17.89h-11.26c-29.56,0-53.52-29.19-53.52-65.19Z"/>
          <path class="cls-12" d="m1128.43,1229.15h-404.49c-4.94,0-8.94-4-8.94-8.94h0c0-4.94,4-8.94,8.94-8.94h404.49c4.94,0,8.95,4,8.95,8.94h0c0,4.94-4.01,8.94-8.95,8.94Z"/>
        </g>
        <path class="cls-13" d="m1402.27,1092.58l-945.14-10.85c-20.23-.23-36.51-16.7-36.51-36.93V467.93c0-20.18,16.19-36.62,36.37-36.93l932.95-14.29c20.33-.31,37.08,15.86,37.5,36.18l12.19,601.99c.42,20.85-16.5,37.92-37.35,37.68Z"/>
        <rect class="cls-4" x="457.23" y="474.82" width="932.82" height="503.35" rx="18.22" ry="18.22"/>
      </g>
      <g>
        <g>
          <path class="cls-23" d="m1674.28,1072.75l173.8.4,197.86,4.93.51,14.9-191.38-8.32c-19.23.66-34.24,18.28-33.51,39.35h0c.73,21.07,16.91,37.61,36.14,36.95l190.87-6.58.38,11-372.03,16.4c-24.97.86-45.97-24.19-46.91-51.54h0c-.94-27.35,19.3-56.64,44.27-57.5Z"/>
          <path class="cls-23" d="m1804.58,1124.23h0c-.94-27.35,18.53-50.22,43.5-51.08l197.86,4.93.51,14.9-191.38-8.32c-19.23.66-34.24,18.28-33.51,39.35h0c.73,21.07,16.91,37.61,36.14,36.95l190.87-6.58.38,17.84-197.45-.03c-24.97.86-45.97-20.61-46.91-47.96Z"/>
          <path class="cls-22" d="m1855.07,1084.7l191.38,8.28h0c-17.26,2.78-22.46,20.33-24.84,29.69-4.84,18.99,9.54,29.9,26.96,31.49v.26s-190.86,6.58-190.86,6.58c-19.23.66-35.41-15.88-36.14-36.95h0c-.73-21.07,14.28-38.69,33.51-39.35Z"/>
          <rect class="cls-12" x="1859.18" y="1132.71" width="114.53" height="1.04" transform="translate(-24.98 43.35) rotate(-1.29)"/>
          <path class="cls-16" d="m1816.7,1154.93c.55,0,1.09-.23,1.42-.66.52-.68.31-1.6-.47-2.05-.13-.07-12.48-7.49-14.48-28.24-1.99-20.62,14.67-28.55,14.84-28.63.83-.38,1.15-1.28.71-2-.45-.72-1.48-.99-2.31-.61-.77.36-18.82,8.95-16.64,31.49,2.16,22.29,15.44,30.14,16,30.46.29.17.62.24.94.24Z"/>
          <rect class="cls-12" x="1945.4" y="1078.82" width="1.04" height="85.34" transform="translate(794.3 3049.74) rotate(-89.11)"/>
          <path class="cls-16" d="m1764.86,1150.69c-.2-.23-19.9-23.79-1.75-49.79.31-.44.8-.71,1.34-.73l29.05-1c.7.03,1.24.31,1.55.87.31.56.29,1.25-.07,1.78-.08.12-8.14,12.46-5.17,24.3,3.09,12.3,8.38,21.45,8.44,21.54.3.52.31,1.16.02,1.69-.29.53-.84.86-1.44.88l-30.62,1.05s-.04,0-.06,0c-.5,0-.98-.22-1.3-.6Zm21.64-23.74c-2.47-9.84,1.61-19.63,4.04-24.26l-25.11.87c-14.47,21.53-1.36,40.57,1.52,44.29l27.02-.93c-1.85-3.62-5.2-10.9-7.47-19.96Z"/>
        </g>
        <g>
          <path class="cls-20" d="m2051.48,979.3l-177.93-3.57-201.49,7.92-.31,15.19,194.84-11.28c19.6.39,35.14,18.12,34.71,39.6h0c-.43,21.47-16.67,38.56-36.28,38.17l-194.54-3.91-.23,11.22,379.18,7.62c25.45.51,46.53-21.67,47.09-49.55h0c.56-27.88-19.61-50.89-45.06-51.4Z"/>
          <path class="cls-20" d="m1918.61,1027.12h0c.56-27.88-19.61-50.89-45.06-51.4l-201.49,7.92-.31,15.19,194.84-11.28c19.6.39,35.14,18.12,34.71,39.6h0c-.43,21.47-16.67,38.56-36.28,38.17l-194.54-3.91-.23,11.22,201.25,4.04c25.45.51,46.53-21.67,47.09-49.55Z"/>
          <path class="cls-22" d="m1866.6,987.59l-194.84,11.23h0c17.63,2.58,23.18,20.38,25.75,29.88,5.21,19.27-9.28,30.6-27,32.47v.27s194.53,3.91,194.53,3.91c19.6.39,35.84-16.7,36.28-38.17h0c.43-21.47-15.11-39.2-34.71-39.6Z"/>
          <rect class="cls-12" x="1776.35" y="961.15" width="1.06" height="157.05" transform="translate(701.72 2795.32) rotate(-88.85)"/>
          <path class="cls-27" d="m1914.03,1059.74c.3,0,.61-.09.87-.27.51-.35,12.45-8.74,14.08-32.11,1.64-23.64-14.88-32.39-15.58-32.76-.76-.39-1.7-.09-2.09.67-.39.76-.09,1.7.67,2.09.63.33,15.4,8.25,13.9,29.78-1.52,21.88-12.61,29.68-12.73,29.76-.71.48-.89,1.45-.41,2.16.3.44.79.68,1.28.68Z"/>
          <rect class="cls-12" x="1697.47" y="1026.38" width="120.6" height="1.06" transform="translate(-30.38 53.87) rotate(-1.74)"/>
          <path class="cls-27" d="m1954.36,1051.33l-7.95-.16c-3.65-.07-6.95-1.83-9.05-4.82-2.08-2.96-2.61-6.63-1.46-10.05.84-2.48,1.55-4.97,2.13-7.41.75-3.17.7-6.68-.14-10.43-.76-3.38.07-6.86,2.27-9.55,2.22-2.71,5.5-4.23,9-4.16l6.28.12h0c4.12.08,7.84,2.33,9.69,5.87,7.68,14.65,2.95,27.96-.56,34.58-1.96,3.71-5.77,5.99-9.98,5.99-.08,0-.15,0-.23,0Zm-5.26-43.46c-2.52-.06-4.93,1.05-6.54,3.02-1.59,1.95-2.19,4.46-1.64,6.9.94,4.21.99,8.18.13,11.82-.6,2.53-1.34,5.12-2.21,7.69-.84,2.47-.45,5.12,1.05,7.27,1.52,2.17,3.92,3.44,6.57,3.5l7.95.16c3.1.08,5.96-1.6,7.41-4.33,3.22-6.09,7.58-18.3.56-31.69-1.33-2.54-4.02-4.15-7.01-4.21l-6.28-.13Z"/>
        </g>
        <g>
          <path class="cls-4" d="m2051.48,1172.54l-177.93-3.58-201.49,7.92-.31,15.19,194.84-11.28c19.6.39,35.14,18.12,34.71,39.6h0c-.43,21.47-16.67,38.56-36.28,38.17l-194.54-3.91-.23,11.22,379.18,7.62c25.45.51,46.53-21.67,47.09-49.55h0c.56-27.88-19.61-50.89-45.06-51.4Z"/>
          <path class="cls-4" d="m1918.61,1220.37h0c.56-27.88-19.61-50.89-45.06-51.4l-201.49,7.92-.31,15.19,194.84-11.28c19.6.39,35.14,18.12,34.71,39.6h0c-.43,21.47-16.67,38.56-36.28,38.17l-194.54-3.91-.23,11.22,201.25,4.04c25.45.51,46.53-21.67,47.09-49.55Z"/>
          <path class="cls-22" d="m1866.6,1180.84l-194.84,11.23h0c17.63,2.58,23.18,20.38,25.75,29.88,5.21,19.27-9.28,30.6-27,32.47v.27s194.53,3.91,194.53,3.91c19.6.39,35.84-16.7,36.28-38.17h0c.43-21.47-15.11-39.2-34.71-39.6Z"/>
          <rect class="cls-12" x="1776.35" y="1154.4" width="1.06" height="157.05" transform="translate(508.52 2984.69) rotate(-88.85)"/>
          <path class="cls-11" d="m1914.03,1252.99c.3,0,.61-.09.87-.27.51-.35,12.45-8.74,14.08-32.11,1.64-23.64-14.88-32.39-15.58-32.76-.76-.39-1.7-.09-2.09.67-.39.76-.09,1.7.67,2.09.63.33,15.4,8.25,13.9,29.78-1.52,21.88-12.61,29.68-12.73,29.76-.71.48-.89,1.45-.41,2.16.3.44.79.68,1.28.68Z"/>
          <rect class="cls-12" x="1697.47" y="1219.62" width="120.6" height="1.06" transform="translate(-36.22 53.91) rotate(-1.74)"/>
          <path class="cls-11" d="m1954.36,1244.58l-7.95-.16c-3.65-.07-6.95-1.83-9.05-4.82-2.08-2.96-2.61-6.63-1.46-10.05.84-2.48,1.55-4.97,2.13-7.41.75-3.17.7-6.68-.14-10.42-.76-3.38.07-6.86,2.27-9.55,2.22-2.71,5.5-4.22,9-4.16l6.28.13h0c4.12.08,7.84,2.33,9.69,5.87,7.68,14.65,2.95,27.96-.56,34.58-1.96,3.71-5.77,5.99-9.98,5.99-.08,0-.15,0-.23,0Zm-5.26-43.46c-2.52-.06-4.93,1.05-6.54,3.02-1.59,1.95-2.19,4.46-1.64,6.9.94,4.21.99,8.19.13,11.82-.6,2.53-1.34,5.12-2.21,7.69-.84,2.48-.45,5.13,1.05,7.27,1.52,2.17,3.92,3.44,6.57,3.5l7.95.16c3.1.08,5.96-1.6,7.41-4.33,3.22-6.09,7.58-18.29.56-31.69-1.33-2.54-4.02-4.15-7.01-4.21l-6.28-.13Z"/>
        </g>
      </g>
      <g>
        <path class="cls-28" d="m1695.49,682.86s-61.22,79.11-57.06,140.26c4.16,61.16,76.68,12.27,76.68,12.27l6.25-144.81-25.86-7.73Z"/>
        <path class="cls-12" d="m1611.61,1230.4s.53,17.98-11.34,23.7c-11.87,5.73-46.82,12.22-33.04,23.04,7.91,6.21,43.24,0,53.28-.56,10.04-.55,19.71,3.31,26.8-3.81,7.81-7.84-2.41-44.19-2.41-44.19,0,0-8.42,4.99-16.22,5.21-11.25.32-17.07-3.39-17.07-3.39Z"/>
        <path class="cls-12" d="m1502.23,1230.28s.53,17.98-11.34,23.7c-11.87,5.73-46.82,12.22-33.04,23.04,7.91,6.21,43.24,0,53.28-.56,10.04-.55,19.71,3.31,26.8-3.81,7.8-7.84-2.41-44.19-2.41-44.19,0,0-8.42,4.99-16.22,5.21-11.25.32-17.07-3.39-17.07-3.39Z"/>
        <path class="cls-11" d="m1489.21,1200.59c8.89-117.77,10.98-197.23,48.25-248.29,40.79-55.88,150.14-95.39,192.3-97.86,68.76-4.02,101.16,6.22,101.16,6.22,51.61,107.33-29.23,121.57-89.03,124.5-1.97.1-3.96.21-5.95.33-36.2,2.28-100.58,11.48-124.94,47.45-19.29,28.49-32.68,68.48-38.33,171.64-1.08,19.8-17.69,35.15-37.51,34.6,0,0-49.15,3.76-45.95-38.6Z"/>
        <path class="cls-11" d="m1586.8,1206.65c-1.17-118.1-4.84-178.39,30.61-230.73,22.77-33.62,57.02-59,101.79-75.43,31.95-11.73,69.53-18.92,111.7-21.39,68.76-4.02,99.65-12.32,99.65-12.32,55.65,137.39-147.91,108.22-200.9,166.75-23.09,25.5-51.7,74.01-57.35,177.17-1.08,19.8-17.69,35.15-37.51,34.6,0,0-47.56,4.53-47.99-38.65Z"/>
        <path class="cls-6" d="m1587.14,1090.66l-.79-.04c.03-.71,3.53-70.92,15.34-95.54,14.94-31.14,58.26-63.65,103-77.29l.23.75c-44.55,13.58-87.66,45.92-102.51,76.88-11.74,24.47-15.23,94.53-15.27,95.23Z"/>
        <path class="cls-4" d="m1881.77,648.65s-29.25-50-96.68-34.66c-67.43,15.34-94.91,84.22-99.74,249.61,0,0,62.43-2.29,226.45,52.11,19.43,6.44,47.93,1.33,37.95-31.76-18.54-61.52-36.5-184.23-67.98-235.3Z"/>
        <path class="cls-4" d="m1955.95,663.25l-69.36,13.04s-121.29,35.87-155.24,36.15c-33.95.28-48.01-24.55-48.01-24.55,0,0,27.39-46.48,84.78-68.42,5.39-2.07,11.04-3.91,16.96-5.48,9.94-2.63,20.05-4.93,30.16-5.05,114.49-1.31,140.71,54.31,140.71,54.31Z"/>
        <path class="cls-12" d="m1955.95,663.25c1.5,5.47-13.04,14.59-32.47,20.38-19.44,5.79-36.41,6.05-37.91.58-1.5-5.47,13.04-14.59,32.47-20.38,19.44-5.79,36.41-6.05,37.91-.58Z"/>
        <path class="cls-28" d="m1815.12,608.95c-7.41.6-14.58-2.76-18.75-8.91l-13.05-19.3-3.79-5.6-22.26-32.93,9.74,36.66,5.85,22,1.67,6.27c1.36,5.12-1.39,10.4-6.34,12.29l-.09.03c-1.9,4.99-3.97,14.8,8.06,16.25,14.13,1.71,33.69-12.88,39.06-26.78-.04,0-.08,0-.12.01Z"/>
        <path class="cls-19" d="m1798.14,528.1s-.28,6.38,5.6,18.21c8.61,17.32-10.85,28.93-17.19,24.72-.78-.52-5.82-31.8-5.82-31.8l5.93-5.24,11.48-5.89Z"/>
        <path class="cls-12" d="m1783.25,580.12c.03.21.06.41.08.62,1.39,12.15-10.36,20.18-10.36,20.18l-.09-.05-5.85-22c3.65-2.18,8.95-4.72,12.52-3.73,1.87.52,3.26,1.99,3.71,4.98Z"/>
        <path class="cls-28" d="m1721.8,555.11c-4.52-23.8,7.45-46.06,26.73-49.73,19.29-3.67,38.59,12.65,43.11,36.45,4.52,23.8-7.44,46.06-26.73,49.73-19.29,3.67-38.59-12.65-43.12-36.45Z"/>
        <path class="cls-19" d="m1736.61,518.03c1.22,1.14-.06,24.35,42.01,21.84,42.07-2.51,7.93-47.65-22.58-43.01-44.06,6.69-43.56,43.09-37.34,52.88,6.22,9.79,17.92-31.7,17.92-31.7Z"/>
        <path class="cls-19" d="m1794.72,478.75s-16.1,15.85.3,24.76c16.4,8.92,56.38,6.58,49.47,28.2-6.91,21.62-10.62,52.41,9.23,52.4,19.84-.01,31.63-3.76,42.33,10,10.7,13.76,43.67-2.29,37.38-19.89-6.29-17.61,20.47-39.24,4.53-53.51-15.94-14.27-49.92-22.85-61.86-43.14-11.94-20.29-68.27-11.09-81.37,1.18Z"/>
        <path class="cls-19" d="m1772.75,533.67s20.14,14.5,17.76,33.69c0,0,7.71-12.49,7.17-16.5-.54-4.01-5.85-17.85-5.85-17.85l-19.08.66Z"/>
        <path class="cls-28" d="m1788.22,547.19c-3.24,4.53-8.7,5.97-12.19,3.21-3.5-2.75-3.7-8.66-.47-13.19,3.24-4.53,8.7-5.97,12.19-3.21,3.5,2.75,3.7,8.66.47,13.19Z"/>
        <path class="cls-17" d="m1895.33,594.3c-5.17-19.44-16.62-20.32-28.76-21.24-4.81-.37-9.79-.75-14.53-2.27-2.26-.72-3.84-1.98-4.7-3.73-2.15-4.38.34-11.28,3.24-19.28,4.21-11.64,8.98-24.84,1.86-35.08-13.79-19.84-34.67-20.7-34.88-20.71-12.15.77-18.44-.59-19.17-4.17-.73-3.61,4.95-7.62,7.05-8.35,17-5.95,36.67-8.35,65.15,14.16,22.46,17.75,20.92,27.74,18.97,40.39-.43,2.79-.88,5.68-1.08,8.81-.16,2.48.36,4.32,1.59,5.62,2.75,2.9,8.87,2.83,14.79,2.75,7.66-.09,15.58-.18,17.71,5.9,1.67,4.76-.23,10.42-2.06,15.9-1.88,5.61-3.66,10.91-1.47,14.61,1.43,2.42,4.47,4.03,9.31,4.91l-.26,1.44c-5.28-.97-8.65-2.8-10.31-5.61-2.53-4.28-.65-9.89,1.34-15.82,1.76-5.24,3.57-10.66,2.07-14.95-1.79-5.1-8.84-5.01-16.32-4.93-6.23.07-12.69.15-15.87-3.21-1.51-1.59-2.17-3.85-1.99-6.72.21-3.2.66-6.12,1.1-8.94,1.88-12.18,3.37-21.8-18.43-39.02-27.93-22.07-47.15-19.74-63.76-13.93-2.02.71-6.59,4.28-6.1,6.69.25,1.22,2.47,3.96,17.71,3,.29,0,21.89.9,36.1,21.34,7.55,10.86,2.43,25.03-1.69,36.41-2.78,7.68-5.18,14.31-3.3,18.13.69,1.4,1.94,2.38,3.84,2.98,4.58,1.47,9.47,1.84,14.2,2.2,12.66.97,24.62,1.88,30.06,22.32l-1.41.38Z"/>
        <path class="cls-17" d="m1771.6,526.97c-13.05,0-21.43-8.99-21.53-9.09l.98-.9c.1.11,10.1,10.8,25.13,8.27l.22,1.31c-1.66.28-3.27.4-4.81.4Z"/>
        <path class="cls-13" d="m1734.8,581.45c-2.58.82-5.47.67-8.35-.46-4.65-1.82-8.86-5.98-11.54-11.42-5.01-10.14-3.28-21.74,3.86-25.85,3.05-1.76,6.77-1.93,10.48-.48,4.65,1.82,8.86,5.98,11.54,11.42,5.01,10.14,3.28,21.74-3.86,25.85-.68.39-1.39.71-2.13.94Zm-13.6-37.7c-.69.22-1.35.51-1.98.87-6.72,3.87-8.31,14.87-3.55,24.52,2.56,5.19,6.57,9.17,11,10.9,3.47,1.36,6.96,1.21,9.8-.43,6.72-3.87,8.31-14.87,3.55-24.52-2.56-5.2-6.57-9.17-11-10.9-2.7-1.06-5.41-1.2-7.82-.44Z"/>
        <path class="cls-13" d="m1766.69,569.75c-2.74.52-5.67.05-8.46-1.4-4.52-2.34-8.29-6.95-10.33-12.66-3.82-10.65-.58-21.99,7.23-25.28,3.34-1.4,7.16-1.15,10.76.71,4.52,2.34,8.29,6.95,10.33,12.66h0c3.82,10.65.58,21.99-7.23,25.28-.75.31-1.51.54-2.3.69Zm-9.08-39.03c-.73.14-1.44.35-2.14.64-7.35,3.09-10.38,13.85-6.75,23.98,1.96,5.46,5.54,9.86,9.84,12.09,3.38,1.75,6.95,1.99,10.07.67,7.35-3.09,10.38-13.85,6.75-23.98h0c-1.96-5.46-5.55-9.86-9.84-12.09-2.63-1.36-5.38-1.8-7.93-1.32Z"/>
        <path class="cls-13" d="m1739.2,561.37c-.13.02-.27-.01-.38-.11-.17-.16-.18-.43-.01-.6.16-.17,4.07-4.16,12.15-4.47.24,0,.43.17.44.41,0,.24-.17.44-.41.44-7.72.3-11.53,4.17-11.56,4.21-.06.07-.14.11-.23.12Z"/>
        <path class="cls-5" d="m1742.74,580.02s11.98-1.99,23.12-8.45c0,0,3.23,11.57-9.55,14.81-7.43,1.89-13.57-6.36-13.57-6.36Z"/>
        <path class="cls-17" d="m1742.74,580.02s3.34,1.85,10.07.54c6.73-1.31,13.04-8.99,13.04-8.99,0,0-13.62,6.68-23.12,8.45Z"/>
        <path class="cls-3" d="m1753.43,549.53c-.24-.02-.48-.15-.62-.37-.24-.38-.13-.88.24-1.12.22-.14,5.04-3.91,10.72.34.36.27.45.77.18,1.13-.26.36-.72.36-1.13.19-4.11-1.76-8.72-.41-8.9-.29-.16.1-.33.14-.5.12Z"/>
        <path class="cls-3" d="m1761.37,557.07c.42,1.88-.35,3.66-1.71,3.96-1.37.3-2.81-.97-3.24-2.86s.35-3.66,1.71-3.96c1.37-.3,2.82.97,3.24,2.86Z"/>
        <path class="cls-3" d="m1725.86,559.06c-.23.08-.5.04-.71-.11-.37-.26-.46-.76-.2-1.12.15-.22,3.18-5.54,10.04-3.77.43.11.7.54.6.97-.1.44-.52.61-.97.6-4.47-.06-8.22,2.95-8.34,3.12-.11.15-.25.25-.41.3Z"/>
        <path class="cls-3" d="m1736.08,563c1.11,1.58,1.07,3.51-.07,4.32-1.15.8-2.97.17-4.08-1.41-1.11-1.58-1.07-3.51.07-4.32,1.15-.8,2.97-.17,4.08,1.41Z"/>
        <path class="cls-28" d="m1932.66,809.86c-24.96,36.06-55.85,55.88-121.53,67.85l-2.51-42.05c80.06-29.37,88.89-124.88,84.79-149.01-.39-2.29.51-4.59,2.36-6,6.11-4.68,21.95-14.2,50.26-14.76,2.52-.05,4.75,1.64,5.39,4.07,11.84,44.6,10.69,97.36-18.76,139.91Z"/>
        <g class="cls-31">
          <path class="cls-2" d="m1907.18,822.53c-1.08,0-2.14-.21-3.13-.64-5.19-2.22-7.01-9.69-4.06-16.67,1.69-3.99,4.7-7.18,8.07-8.54,2.32-.94,4.63-.97,6.69-.09,5.19,2.22,7.01,9.69,4.07,16.67h0c-1.69,3.99-4.7,7.19-8.07,8.54-1.2.49-2.4.73-3.56.73Zm4.44-24.29c-.87,0-1.79.19-2.71.56-2.82,1.14-5.37,3.88-6.83,7.32-2.46,5.82-1.18,11.96,2.86,13.69,1.49.63,3.19.6,4.94-.11,2.82-1.14,5.37-3.88,6.83-7.32h0c2.46-5.82,1.18-11.96-2.86-13.69-.7-.3-1.45-.45-2.24-.45Z"/>
        </g>
        <g>
          <path class="cls-28" d="m1808.61,835.66s-38.97-2.22-49.04,6.14c-10.06,8.36-16.6,26.64-9.26,22.79,7.34-3.86,15.35-11.37,15.35-11.37,0,0-16.37,16.87-10.77,18.99,5.6,2.12,19.7-12.69,19.7-12.69,0,0-17.88,21.62-11.94,21.91,5.94.29,19.41-16.23,19.41-16.23,0,0-15.83,20.78-8.92,20.96,6.91.17,12.97-17.26,18.57-15.14,5.6,2.12,21.64,14.34,29.44-.51l-12.54-34.84Z"/>
          <path class="cls-21" d="m1766.06,853.49l-.79-.56c.17-.23,4.05-5.59,8.31-5.59.04,0,.09,0,.13,0l-.03.96c-3.77-.07-7.59,5.14-7.62,5.19Z"/>
          <path class="cls-21" d="m1775,859.79l-.8-.55c.16-.23,3.91-5.59,9.9-6.64l.17.95c-5.59.97-9.24,6.18-9.27,6.23Z"/>
          <path class="cls-21" d="m1782.46,865.47l-.79-.56c.2-.28,4.86-6.75,9.45-6.24l-.11.96c-4.03-.44-8.51,5.78-8.56,5.84Z"/>
        </g>
        <g>
          <path class="cls-12" d="m1766.62,895.61h-129.29c-2.71,0-5.11-1.72-5.96-4.27l-26.87-80.24c-1.35-4.04,1.68-8.21,5.96-8.21h124.34c5.67,0,10.7,3.6,12.48,8.94l25.3,75.57c1.35,4.04-1.68,8.21-5.96,8.21Z"/>
          <path class="cls-12" d="m1758.51,895.61h-129.29c-2.71,0-5.11-1.72-5.96-4.27l-26.87-80.24c-1.35-4.04,1.67-8.21,5.96-8.21h124.33c5.67,0,10.7,3.6,12.48,8.94l25.3,75.57c1.35,4.04-1.68,8.21-5.96,8.21Z"/>
          <path class="cls-15" d="m1667.91,846.62c0-3.05,3.51-4.29,6.58-4.29s8.08,3.34,8.04,7.61c-.03,4.61-3.63,5.21-6.7,5.21s-7.93-4.65-7.93-8.53Z"/>
          <path class="cls-12" d="m1629.15,884.27h176.92c4.13,0,7.48,3.35,7.48,7.48v.05c0,2.1-1.7,3.8-3.8,3.8h-180.6v-11.34h0Z"/>
          <path class="cls-11" d="m1749.31,843.45c-.06-.24-6.41-24.03-10.51-31.42-4.03-7.26-9.04-8.73-9.09-8.74l.22-.81c.22.06,5.38,1.55,9.6,9.14,4.16,7.48,10.33,30.63,10.59,31.61l-.81.22Z"/>
          <path class="cls-11" d="m1768.42,884.69c-4.79,0-5.99-2.12-6.04-2.21l-10.1-30.16.8-.27,10.08,30.09h0s1.09,1.7,5.27,1.7v.84Z"/>
        </g>
      </g>
      <g>
        <path class="cls-18" d="m530.99,496.52h809.99c9.2,0,16.66,7.47,16.66,16.66v432.3c0,9.2-7.47,16.66-16.66,16.66h-809.98c-9.2,0-16.66-7.47-16.66-16.66v-432.3c0-9.2,7.47-16.66,16.66-16.66Z"/>
        <g>
          <path class="cls-12" d="m514.32,908.94v13.67c0,8.43,6.84,15.27,15.27,15.27h485.06c1.07-.27,2.13-.6,3.16-.97-34.52-33.54-100.96-86.16-191.78-103.92-6.67-1.32-13.47-2.45-20.4-3.36-6.12-.8-12.34-1.44-18.66-1.89-.33-.03-.68-.06-1.01-.08-19.31-1.34-38.61-.64-57.63,1.36-3.85.4-7.69.86-11.52,1.36-5.67.75-11.19,1.55-16.6,2.41-90.85,14.47-148.94,45.04-185.88,76.15Z"/>
          <path class="cls-28" d="m724.53,851.77c-10.29-15.82,4.49-17.19,9.17-33.18l14.47-49.48,4.21-14.41,24.76-84.7,4.78,83.78,2.86,50.29.91,15.92c.61,10.8,3.58,12.29,11.75,21.56,3.31,3.75,15.67,18.94-.14,26.57-14.18,6.84-59.66,3.82-72.77-16.35Z"/>
          <path class="cls-12" d="m729.3,750.06s-82.49-28.79-70.18-90.16c12.3-61.37,75.21,55.53,75.21,55.53l3.32,32.1-8.35,2.53Z"/>
          <path class="cls-12" d="m747.9,767.75c.08.46.17.91.27,1.36,5.54,26.48,36.45,35.14,36.45,35.14l.16-.17-2.86-50.29c-9.37-2.03-22.55-3.65-29.54.92-3.65,2.39-5.61,6.46-4.48,13.04Z"/>
          <path class="cls-28" d="m856.47,682.7c-6.4-48.77-44.38-84-84.83-78.69-40.45,5.31-68.05,49.15-61.64,97.92,6.4,48.77,44.38,84,84.83,78.69,40.45-5.31,68.04-49.15,61.64-97.92Z"/>
          <path class="cls-12" d="m719.38,690.22s24.34,4.92,34.68-13.22c10.33-18.14,16.42-33.66,58.65-32.08,42.23,1.59,76.46-23.2,74.68-45.69-1.78-22.49-24.9-29.88-46.11-19.12-21.21,10.75-.3-12.87-24.56-26.38-24.26-13.52-52.97,24.71-76.46,23.2-23.49-1.51-94.9,20.25-81.14,82.97l60.27,30.33Z"/>
          <path class="cls-28" d="m710.16,708.2c7.49,4.76,17.01,3.2,21.27-3.49,4.26-6.69,1.64-15.98-5.85-20.74-7.49-4.76-17.01-3.2-21.27,3.49-4.26,6.69-1.64,15.98,5.85,20.74Z"/>
          <path class="cls-17" d="m832.44,611.35c-3.31,0-6.98-.28-11.01-.85-9.75-1.37-18.08-4-18.17-4.02l.3-.96c.33.1,32.94,10.29,45.06.67,5.86-4.65,6.37-8.63,4.89-10.8-1.8-2.63-6.88-3.49-12.27-.36-10.44,6.05-17.94,5.08-18.25,5.03l.14-1c.07.01,7.49.96,17.6-4.91,5.9-3.42,11.56-2.35,13.61.66,1.73,2.54,1.31,7.07-5.09,12.15-3.67,2.92-9.31,4.38-16.82,4.38Z"/>
          <path class="cls-17" d="m698.37,596.37l-.58-.82c8.93-6.31,19.67-5.69,32.12-4.98,6.18.36,12.57.72,19.51.34,21.13-1.16,37.8-21.17,38.23-22.42l.96.29c-.61,2.02-18.09,21.97-39.14,23.13-7,.38-13.42.01-19.63-.34-12.25-.71-22.84-1.31-31.48,4.8Z"/>
          <path class="cls-17" d="m673.98,648.45c-.83,0-1.85-.55-2.25-3.04v-.09s0-.09,0-.09c.12-.61,2.95-14.99,8.85-14.21.73.1,1.94.62,1.86,3.07-.16,4.77-5.17,14.15-8.33,14.36-.04,0-.08,0-.12,0Zm-1.25-3.11c.17,1.01.54,2.16,1.3,2.11,2.4-.15,7.24-8.91,7.39-13.39.06-1.89-.72-2-.98-2.03-4.1-.54-6.93,9.34-7.71,13.31Z"/>
          <path class="cls-3" d="m797.12,688.59c.38-.24.65-.66.69-1.14.07-.82-.54-1.54-1.36-1.62-.49-.04-11.64-2.04-17.26,9.82-.35.75-.07,1.64.67,2.01.74.37,1.49-.03,2.01-.67,5.21-6.44,13.92-8.2,14.33-8.17.34.03.66-.06.92-.23Z"/>
          <path class="cls-3" d="m790.63,707.79c.94,3.45,3.73,5.69,6.23,5.01,2.5-.68,3.77-4.03,2.83-7.48-.94-3.45-3.73-5.69-6.23-5.01-2.5.68-3.77,4.03-2.83,7.48Z"/>
          <path class="cls-3" d="m852.51,684.14c.35-.06.65-.32.81-.75.27-.72,0-1.62-.58-2.02-.35-.24-8.03-6.66-15.27,1.73-.45.53-.48,1.45-.03,2.09.45.64,1.1.59,1.65.22,5.52-3.66,12.39-1.65,12.68-1.46.24.16.5.22.74.18Z"/>
          <path class="cls-3" d="m838.86,699.49c-.44,3.54,1.28,6.68,3.85,7,2.57.32,5.02-2.29,5.46-5.84.44-3.55-1.28-6.68-3.86-7-2.57-.32-5.02,2.29-5.46,5.84Z"/>
          <g>
            <path class="cls-6" d="m799.34,754.99c-5.93,0-12.44-1.62-18.89-6.28-.47-.34-.57-.99-.23-1.46.34-.47.99-.57,1.46-.23,19.58,14.17,39.35-1.24,40.18-1.9.45-.36,1.11-.29,1.47.17s.29,1.11-.17,1.47c-.15.12-10.53,8.24-23.83,8.24Z"/>
            <path class="cls-6" d="m779.58,753.02c-.53,0-.98-.4-1.04-.94-.28-2.72.85-5.85,3.36-9.31.06-.08.1-.14.12-.17.32-.48.96-.62,1.44-.31.48.31.63.94.33,1.42-.03.05-.1.15-.2.29-2.74,3.77-3.12,6.36-2.97,7.87.06.57-.36,1.09-.93,1.15-.04,0-.07,0-.11,0Z"/>
          </g>
          <path class="cls-17" d="m859.09,743.8c-2.37,0-4.76-.43-7.13-1.3-16.62-6.09-27.92-32.5-25.19-58.88,1.68-16.21,8.34-29.43,17.83-35.35,5.67-3.54,11.93-4.22,18.08-1.97,16.62,6.09,27.92,32.5,25.19,58.89-1.68,16.21-8.34,29.43-17.83,35.35-3.48,2.18-7.19,3.27-10.95,3.27Zm-3.51-95.7c-3.2,0-6.36.93-9.33,2.79-8.68,5.42-14.8,17.77-16.38,33.04h0c-2.59,25.06,7.8,50.02,23.16,55.65,5.23,1.91,10.54,1.33,15.37-1.69,8.68-5.42,14.8-17.77,16.38-33.04,2.59-25.06-7.8-50.02-23.16-55.65-2.01-.74-4.04-1.1-6.04-1.1Z"/>
          <g class="cls-31">
            <path class="cls-17" d="m744.36,683.97c-.46,25.22,13.69,49.24,31.61,53.65,17.92,4.41,32.83-12.45,33.29-37.67.46-25.22-13.69-49.24-31.61-53.65-17.92-4.41-32.83,12.45-33.29,37.67Z"/>
          </g>
          <g class="cls-31">
            <path class="cls-17" d="m826.54,685.74c-.46,25.33,12.33,50.03,28.56,55.17,16.23,5.14,29.75-11.23,30.21-36.56.46-25.33-12.33-50.03-28.56-55.17-16.23-5.14-29.75,11.23-30.21,36.56Z"/>
          </g>
          <path class="cls-17" d="m782.99,738.74c-2.08,0-4.19-.25-6.32-.76-19.71-4.69-35.25-30.44-34.63-57.42h0c.36-15.69,5.98-28.87,15.41-36.15,6.51-5.03,14.16-6.68,22.12-4.79,19.71,4.69,35.25,30.45,34.63,57.42-.36,15.69-5.98,28.87-15.41,36.15-4.76,3.68-10.14,5.55-15.79,5.55Zm-37.84-58.11c-.59,25.59,13.88,49.96,32.24,54.33,7.01,1.67,13.76.21,19.5-4.23,8.56-6.61,13.87-19.23,14.2-33.76.58-25.59-13.88-49.96-32.24-54.33-7.02-1.67-13.76-.2-19.5,4.23-8.56,6.61-13.87,19.23-14.2,33.76h0Z"/>
          <path class="cls-17" d="m807.46,694.69c-1.13,0-2.21-.66-2.67-1.77-.63-1.48.06-3.18,1.54-3.8,14.82-6.27,25.63-.69,26.09-.45,1.42.75,1.95,2.51,1.2,3.92-.75,1.41-2.5,1.95-3.91,1.21-.39-.2-8.98-4.48-21.12.66-.37.16-.75.23-1.13.23Z"/>
          <path class="cls-12" d="m658.75,660.63c-13.06-6.57-9.72-20.96-9.69-21.1l1.59.39c-.13.54-3.05,13.27,8.83,19.25l-.73,1.46Z"/>
          <path class="cls-12" d="m650.13,678.11l-1.37-.89c.27-.42,6.81-10.44,14.41-12.13l.35,1.6c-6.94,1.54-13.33,11.32-13.39,11.42Z"/>
        </g>
        <g class="cls-29">
          <path class="cls-4" d="m994.02,589.76h226.78c6.53,0,11.83,5.3,11.83,11.83v130.94c0,6.53-5.3,11.83-11.83,11.83h-226.78c-6.53,0-11.83-5.3-11.83-11.83v-130.94c0-6.53,5.3-11.83,11.83-11.83Z" transform="translate(2214.82 1334.11) rotate(180)"/>
        </g>
        <path class="cls-4" d="m1044.31,547.2h226.78c6.53,0,11.83,5.3,11.83,11.83v130.94c0,6.53-5.3,11.83-11.83,11.83h-226.78c-6.53,0-11.83-5.3-11.83-11.83v-130.94c0-6.53,5.3-11.83,11.83-11.83Z" transform="translate(2315.39 1249) rotate(180)"/>
        <g>
          <path class="cls-8" d="m1156.45,776.64c-7.72-8.47-47.04-7.6-77.36-1.06.04-1.63-.01-3.33-.17-5.1-3.22-37.57-10.71-89.28-29.56-86.15-12.89,2.14-9.02,126.93-9.02,126.93-.12,3.35-.14,6.93-.1,10.65-14.91-22.85-46.89-42.98-53.77-32.67-7.53,11.29,18.81,39.24,30.64,67.72,11.81,28.44,31.38,65.8,31.6,79.65h126.35c-.73-38.06-9.01-149.44-18.61-159.97Z"/>
          <path class="cls-28" d="m1085.91,741.13c-6.81,1.17-13.64-.92-16.84,37.18-1.6,19.06-2.92,79.04,15.07,76.02,17.98-3.02,24.13-71.01,24.13-71.01,0,0-.37,77.95,15.33,69.82,15.7-8.14,21.68-69.82,21.68-69.82,0,0-4.7,75.93,13.28,66.06,17.97-9.87,23.47-50.31,21.96-67.67-1.89-21.69-17.76-22.96-34.64-24.06,0,0-16.7-10.35-27.76-8.43-4.24.73-18.85-10.38-32.2-8.09Z"/>
        </g>
        <g>
          <path class="cls-4" d="m514.32,920.72v24.77c0,9.2,7.46,16.66,16.66,16.66h809.99c9.2,0,16.66-7.46,16.66-16.66v-16.52c-98.16-1.48-651.79-6.51-843.31-8.25Z"/>
          <g>
            <rect class="cls-18" x="936.94" y="579" width="6.45" height="728.96" transform="translate(-8.55 1878.35) rotate(-89.68)"/>
            <polygon class="cls-20" points="938.5 940.24 939.38 946.69 1304.63 948.74 1304.66 942.28 938.5 940.24"/>
            <path class="cls-20" d="m951.03,943.47c0-6-4.86-10.86-10.86-10.86s-10.86,4.86-10.86,10.86,4.86,10.86,10.86,10.86,10.86-4.86,10.86-10.86Z"/>
          </g>
        </g>
        <g>
          <path class="cls-25" d="m1328.67,521.16c0-4.44-3.6-8.04-8.04-8.04s-8.03,3.6-8.03,8.04,3.6,8.04,8.03,8.04,8.04-3.6,8.04-8.04Z"/>
          <path class="cls-13" d="m1299.62,521.16c0-4.44-3.6-8.04-8.04-8.04s-8.04,3.6-8.04,8.04,3.6,8.04,8.04,8.04,8.04-3.6,8.04-8.04Z"/>
          <path class="cls-20" d="m1269.84,521.16c0-4.44-3.6-8.04-8.04-8.04s-8.03,3.6-8.03,8.04,3.6,8.04,8.03,8.04,8.04-3.6,8.04-8.04Z"/>
        </g>
        <g>
          <path class="cls-14" d="m1166.03,599.08h-109.97c-2.42,0-6.14-2.52-6.47-4.92-.66-4.92,4.04-6.33,6.46-6.33l109.98,2.45c2.42,0,4.4,1.98,4.4,4.4h0c0,2.42-1.98,4.4-4.4,4.4Z"/>
          <path class="cls-14" d="m1137.46,578.42h-83.01c-1.83,0-4.64-2.03-4.88-3.95-.5-3.95,3.05-5.08,4.88-5.08l83.01,1.96c1.83,0,3.32,1.59,3.32,3.54h0c0,1.94-1.49,3.54-3.32,3.54Z"/>
          <path class="cls-14" d="m1137.46,619.9h-83.01c-1.83,0-4.64-2.03-4.88-3.95-.5-3.95,3.05-5.08,4.88-5.08l83.01,1.97c1.83,0,3.32,1.59,3.32,3.54h0c0,1.95-1.49,3.54-3.32,3.54Z"/>
          <path class="cls-14" d="m1150.73,660.42h98.95c2.18,0,5.53-2.27,5.82-4.43.59-4.43-3.63-5.69-5.81-5.69l-98.96,2.2c-2.18,0-3.96,1.78-3.96,3.96h0c0,2.18,1.78,3.96,3.96,3.96Z"/>
          <path class="cls-14" d="m1176.43,679.15h74.69c1.64,0,4.17-1.82,4.39-3.56.45-3.56-2.74-4.57-4.39-4.57l-74.7,1.77c-1.64,0-2.99,1.43-2.99,3.18h0c0,1.75,1.34,3.18,2.99,3.18Z"/>
          <path class="cls-14" d="m1251.59,629.81l-57.12,3.12c-4.56.25-8.31-3.55-8.01-8.1l3.5-53.43c.27-4.17,3.86-7.34,8.03-7.1l52.01,2.99c3.93.23,7.04,3.41,7.17,7.34l1.6,47.32c.14,4.14-3.06,7.64-7.2,7.86Z"/>
          <path class="cls-14" d="m1129.14,678.42l-24.51,1.34c-1.96.11-3.57-1.52-3.44-3.48l1.5-22.93c.12-1.79,1.66-3.15,3.45-3.05l22.32,1.28c1.69.1,3.02,1.46,3.08,3.15l.69,20.31c.06,1.78-1.31,3.28-3.09,3.37Z"/>
          <path class="cls-14" d="m1085.66,678.42l-24.51,1.34c-1.96.11-3.57-1.52-3.44-3.48l1.5-22.93c.12-1.79,1.66-3.15,3.45-3.05l22.32,1.28c1.69.1,3.02,1.46,3.08,3.15l.69,20.31c.06,1.78-1.31,3.28-3.09,3.37Z"/>
        </g>
        <g>
          <g class="cls-29">
            <path class="cls-4" d="m1247.31,770.48h70.81c8.1,0,14.68,6.58,14.68,14.68v97.16c0,8.1-6.58,14.68-14.68,14.68h-70.81c-8.1,0-14.68-6.58-14.68-14.68v-97.16c0-8.1,6.58-14.68,14.68-14.68Z" transform="translate(2565.44 1667.48) rotate(180)"/>
          </g>
          <path class="cls-15" d="m1251.53,813.36h61.58c1.36,0,3.44-1.41,3.62-2.76.37-2.76-2.26-3.54-3.62-3.54l-61.58,1.37c-1.36,0-2.46,1.11-2.46,2.46h0c0,1.36,1.11,2.46,2.46,2.46Z"/>
          <path class="cls-15" d="m1267.53,801.79h46.48c1.02,0,2.6-1.13,2.73-2.21.28-2.21-1.71-2.85-2.73-2.85l-46.49,1.1c-1.02,0-1.86.89-1.86,1.98h0c0,1.09.84,1.98,1.86,1.98Z"/>
          <path class="cls-15" d="m1267.53,825.02h46.48c1.02,0,2.6-1.13,2.73-2.21.28-2.21-1.71-2.85-2.73-2.85l-46.49,1.1c-1.02,0-1.86.89-1.86,1.98h0c0,1.09.84,1.98,1.86,1.98Z"/>
          <path class="cls-15" d="m1251.53,859.82h61.58c1.36,0,3.44-1.41,3.62-2.76.37-2.76-2.26-3.54-3.62-3.54l-61.58,1.37c-1.36,0-2.46,1.11-2.46,2.46h0c0,1.36,1.11,2.46,2.46,2.46Z"/>
          <path class="cls-15" d="m1267.53,848.24h46.48c1.02,0,2.6-1.13,2.73-2.21.28-2.21-1.71-2.85-2.73-2.85l-46.49,1.1c-1.02,0-1.86.89-1.86,1.98h0c0,1.09.84,1.98,1.86,1.98Z"/>
          <path class="cls-15" d="m1267.53,871.47h46.48c1.02,0,2.6-1.13,2.73-2.21.28-2.21-1.71-2.85-2.73-2.85l-46.49,1.1c-1.02,0-1.86.89-1.86,1.98h0c0,1.09.84,1.98,1.86,1.98Z"/>
        </g>
      </g>
      <g>
        <path class="cls-10" d="m408.87,502.58s-9.87,86.92,10.02,86.19c19.89-.74,60.22-37.94,139.14-29.38,78.92,8.57,175.19,28.72,236.74-73.08,61.54-101.81-70.9-135.53-70.9-135.53l-315,151.8h0Z"/>
        <path class="cls-11" d="m208.52,526.77c-9.26.64-18.35-2.7-24.99-9.2l-3.59-3.51c-5.22-5.11-4.49-13.71,1.51-17.87l369.46-256.28c6.17-4.28,13.34-6.87,20.82-7.52l367.56-32.01c4.99-.43,9.7,2.38,11.69,6.97h0c2.13,4.92.61,10.66-3.66,13.89l-363.09,274.58c-4.59,3.47-10.08,5.53-15.82,5.93l-359.89,25.02Z"/>
        <g>
          <path class="cls-20" d="m317.28,814.05c2.04-7.83,9.69-12.41,17.1-10.22,7.41,2.19,11.76,10.31,9.73,18.14-2.03,7.83-9.69,12.41-17.1,10.23-7.41-2.19-11.76-10.31-9.73-18.15h0Z"/>
          <path class="cls-20" d="m329.28,818.06c-14.41-1.09-16.38,137.55-16.38,137.55,0,0,9.43,4.61,14.03,3.48,4.6-1.13,6.77-19.87,6.77-19.87l.64,19.62s15.79.47,21.22-3.63c0,0-3.51-135.44-26.3-137.16h0Z"/>
        </g>
        <path class="cls-20" d="m324.11,807.88l-2.15-282.79c-2.93-25.66,8.47-50.87,29.68-65.61l173.51-120.63c3.81-2.65,9.04-1.7,11.69,2.11h0c1.32,1.9.85,4.51-1.05,5.83l-184.16,128.02c-14.17,9.85-21.77,26.69-19.8,43.83l2.41,292.55-10.13-3.31Z"/>
      </g>
      <g>
        <path class="cls-24" d="m2004.49,1309.32s-31.02-31.63-20.35-49.64c10.68-18.01,28.69,38.69,28.69,38.69,0,0-9.34-67.05,10.01-68.22,19.35-1.17,0,68.22,0,68.22,0,0,7.17-16.18,14.18-17.18,7-1,5,13.72-7.51,28.12h-25.02Z"/>
        <path class="cls-9" d="m2006.71,1310.12c-.09-.09-8.97-9.19-16.23-20.68-9.91-15.68-12.27-28.13-7.02-37,1.96-3.31,4.33-4.84,7-4.53,5.35.61,11.64,9.06,18.68,25.11,2.16,4.92,4.07,9.83,5.56,13.89-.54-5.66-1.12-13.14-1.33-21.01-.6-22.16,1.85-36.75,7.28-43.38,2.1-2.56,4.66-3.95,7.61-4.13,2.87-.18,5.23.86,7.02,3.06,8.69,10.76.83,48.75-3.48,66.53,3.22-5.22,7.79-11.03,12.45-11.69,2.21-.31,3.97.51,4.95,2.32,2.82,5.17-1.07,18.34-12.45,31.45l-1.71-1.49c11.19-12.88,14.25-25.05,12.17-28.87-.53-.97-1.37-1.34-2.64-1.16-6,.86-13.01,13.88-15.2,18.82l-2.13-.76c.04-.15,4.28-15.44,7.13-32.17,3.72-21.88,3.43-36.25-.85-41.54-1.31-1.62-3-2.36-5.11-2.22-2.32.14-4.28,1.22-5.99,3.3-12.2,14.9-4.39,72.21-4.31,72.78l-2.21.5c-4.05-12.74-16.55-46.04-25.69-47.08-1.74-.21-3.31.92-4.79,3.43-11.52,19.45,22.57,54.58,22.91,54.93l-1.62,1.59Z"/>
      </g>
      <g>
        <path class="cls-12" d="m1428.32,1310.58s12.34,2.24,11.86,4.92c-.77,4.33-11.98,4.61-11.98,4.61l.13-9.53Z"/>
        <path class="cls-12" d="m602.18,1305.16c-.54,0-1.09-.06-1.65-.2-3.75-.91-6.05-4.68-5.14-8.43l6.87-28.41c.04-.19.1-.37.16-.55,2.82-8.52,11.04-14.15,20.01-13.67l245.58,12.9c3.85.2,6.81,3.49,6.61,7.34-.2,3.85-3.5,6.84-7.34,6.61l-245.58-12.9c-2.62-.15-5.03,1.45-5.94,3.89l-6.79,28.08c-.77,3.2-3.63,5.34-6.78,5.34Z"/>
        <path class="cls-20" d="m1357.12,1351.61l-781.26-15.69c-7.45-.18-13.37-6.31-13.27-13.76l.24-18.35c.1-7.4,6.09-13.35,13.49-13.41l780.27-4.42.53,65.63Z"/>
        <path class="cls-12" d="m562.86,1302.3l-48.81,2.54c-4.06.21-7.26,3.54-7.32,7.61l-.04,3.41c-.06,4.26,3.35,7.76,7.62,7.82l48.27.64.29-22.02Z"/>
        <path class="cls-12" d="m687.67,1289.63s-8.15,19.99-.65,48.9l49.77,1.17s-12.53-27.01.67-50.41l-49.79.34Z"/>
        <path class="cls-4" d="m1428.32,1310.63l-.12,8.71c-.03,2.43-1.48,4.62-3.71,5.59l-57.41,25.02c-8.4,3.66-18.32,1.2-23.78-6.15-3.99-5.38-7.04-13.22-6.03-24.43,1.3-14.33,4.87-22.7,8.7-27.58,4.06-5.17,10.99-7.15,17.24-5.12l62.5,20.32c1.57.51,2.63,1.99,2.61,3.64Z"/>
        <path class="cls-12" d="m660.7,1326.7h-.02l-83.06-1.1c-.59,0-1.07-.5-1.06-1.09,0-.59.49-1.06,1.07-1.06,0,0,0,0,.01,0l83.06,1.1c.59,0,1.07.5,1.06,1.09,0,.59-.49,1.06-1.07,1.06Z"/>
        <path class="cls-12" d="m1314.78,1335.39s0,0-.01,0l-561.71-7.46c-.59,0-1.07-.5-1.06-1.09,0-.59.49-1.06,1.07-1.06,0,0,0,0,.01,0l561.71,7.46c.59,0,1.07.5,1.06,1.09,0,.59-.49,1.06-1.07,1.06Z"/>
      </g>
      <g>
        <path class="cls-24" d="m364.99,1278.05s-30.58-31.18-20.06-48.94c10.52-17.76,28.28,38.15,28.28,38.15,0,0-9.21-66.1,9.87-67.25,19.07-1.15,0,67.25,0,67.25,0,0,7.07-15.95,13.98-16.94,6.91-.99,4.93,13.52-7.4,27.73h-24.66Z"/>
        <path class="cls-9" d="m367.18,1278.83c-1.44-1.47-35.15-36.22-22.92-56.86,1.93-3.26,4.25-4.76,6.9-4.46,5.28.6,11.47,8.93,18.42,24.76,2.12,4.82,3.99,9.64,5.45,13.62-1.68-17.3-3.64-51.77,5.89-63.41,2.07-2.53,4.59-3.9,7.5-4.07,2.83-.17,5.16.84,6.92,3.02,8.57,10.6.82,48.06-3.43,65.59,3.17-5.14,7.67-10.87,12.27-11.53,2.18-.31,3.91.5,4.88,2.29,2.78,5.09-1.05,18.09-12.27,31l-1.69-1.47c11.03-12.7,14.05-24.69,12-28.46-.52-.96-1.35-1.32-2.6-1.14-5.92.85-12.83,13.68-14.99,18.55l-2.1-.75c.04-.15,4.22-15.22,7.03-31.71,3.67-21.57,3.38-35.73-.84-40.96-1.29-1.6-2.94-2.31-5.04-2.19-2.29.14-4.22,1.2-5.9,3.26-12.03,14.69-4.32,71.18-4.25,71.75l-2.17.49c-3.99-12.56-16.32-45.39-25.32-46.42-1.72-.19-3.26.91-4.73,3.38-11.37,19.18,22.25,53.8,22.59,54.15l-1.6,1.57Z"/>
      </g>
      <g>
        <path class="cls-24" d="m1523.68,1378.51s-23.46-23.92-15.39-37.55c8.07-13.62,21.7,29.27,21.7,29.27,0,0-7.06-50.72,7.57-51.6,14.63-.88,0,51.6,0,51.6,0,0,5.42-12.24,10.72-12.99,5.3-.76,3.79,10.38-5.68,21.27h-18.92Z"/>
        <path class="cls-9" d="m1525.36,1379.11c-1.11-1.13-26.97-27.79-17.58-43.62,1.48-2.5,3.27-3.66,5.3-3.42,4.05.46,8.8,6.85,14.13,18.99,1.62,3.7,3.06,7.39,4.19,10.45-1.29-13.28-2.79-39.72,4.52-48.65,1.59-1.94,3.52-2.99,5.75-3.12,2.17-.13,3.96.65,5.31,2.32,6.57,8.13.63,36.88-2.63,50.32,2.43-3.95,5.89-8.34,9.42-8.85,1.66-.24,3,.39,3.75,1.76,2.13,3.91-.81,13.88-9.41,23.79l-1.3-1.12c8.46-9.74,10.78-18.94,9.2-21.84-.4-.74-1.04-1.01-2-.88-4.54.65-9.84,10.5-11.5,14.24l-1.61-.58c.03-.12,3.24-11.68,5.39-24.33,2.81-16.55,2.59-27.42-.65-31.42-.99-1.23-2.24-1.78-3.87-1.68-1.76.11-3.24.92-4.53,2.5-9.23,11.27-3.32,54.62-3.26,55.05l-1.67.38c-3.06-9.64-12.52-34.82-19.43-35.61-1.32-.14-2.5.7-3.62,2.59-8.72,14.72,17.07,41.28,17.33,41.55l-1.23,1.2Z"/>
      </g>
      <g>
        <path class="cls-19" d="m1682.23,353.59c0-15.73,12.76-28.49,28.49-28.49s28.49,12.76,28.49,28.49-12.76,28.49-28.49,28.49-28.49-12.75-28.49-28.49Z"/>
        <path class="cls-19" d="m1658.72,328.54c-2.61,0-5.24-.73-7.6-2.25-6.49-4.2-8.34-12.87-4.14-19.36,14.06-21.71,37.89-34.68,63.73-34.68,24.16,0,47.1,11.67,61.35,31.22,4.55,6.25,3.18,15-3.06,19.55-6.25,4.56-15,3.18-19.56-3.06-9-12.35-23.48-19.72-38.73-19.72-16.31,0-31.35,8.19-40.24,21.9-2.68,4.14-7.17,6.39-11.76,6.39Z"/>
        <path class="cls-19" d="m1617.17,299.91c-2.61,0-5.24-.73-7.59-2.25-6.49-4.2-8.34-12.87-4.14-19.36,23.41-36.14,63.06-57.72,106.07-57.72,40.22,0,78.39,19.42,102.11,51.96,4.55,6.25,3.18,15-3.06,19.56-6.24,4.55-15,3.18-19.55-3.06-18.47-25.34-48.19-40.46-79.49-40.46-33.48,0-64.35,16.8-82.58,44.94-2.68,4.14-7.17,6.39-11.76,6.39Z"/>
      </g>
    </g>
  </g>
</svg>