<?xml version="1.0" encoding="UTF-8"?>
<svg id="Layer_2" data-name="Layer 2" xmlns="http://www.w3.org/2000/svg" viewBox="0 0 4000 3489.58">
  <defs>
    <style>
      .cls-1 {
        fill: #4d67aa;
      }

      .cls-1, .cls-2, .cls-3, .cls-4, .cls-5, .cls-6, .cls-7, .cls-8, .cls-9, .cls-10, .cls-11, .cls-12, .cls-13 {
        stroke-width: 0px;
      }

      .cls-2 {
        fill: #0a2f35;
        opacity: .14;
      }

      .cls-3 {
        fill: #a3d7d8;
      }

      .cls-4 {
        fill: #2b2a77;
      }

      .cls-5 {
        fill: #d6dde5;
      }

      .cls-6 {
        fill: #fff;
      }

      .cls-7 {
        fill: #363364;
      }

      .cls-8 {
        fill: #383877;
      }

      .cls-14, .cls-9, .cls-10 {
        opacity: .49;
      }

      .cls-9 {
        fill: #ffcfe3;
      }

      .cls-10 {
        fill: #bceded;
      }

      .cls-11 {
        fill: #d97baf;
      }

      .cls-12 {
        fill: #ee85aa;
      }

      .cls-13 {
        fill: #3e65a0;
      }
    </style>
  </defs>
  <g id="Layer_1-2" data-name="Layer 1">
    <g>
      <ellipse class="cls-2" cx="2000" cy="3369.06" rx="1822.17" ry="120.52"/>
      <g>
        <path class="cls-9" d="m2898.7,10.08c-125.81-49.62-286.46,89.69-369.95,290.23-83.5,200.54-141.71,641.22-141.71,641.22,0,0,.33-.19.57-.32-31.62,64.91-61.32,130.63-89.34,197.03,14.69-91.74,22.11-192.3,12.11-290.09-22.04-215.63-147.45-445.73-277.18-407.55-129.73,38.17-170.85,246.79-113.48,456.3,46.55,169.96,203.31,454.31,260.85,555.63-48.15,147.91-87.19,298.71-117.35,451.64,4.12-130.19-3.96-312.08-61.16-473.26-72.48-204.28-248.8-398.14-365.8-330.33-117,67.81-107.55,280.23-2.19,470.2,91.9,165.7,338.89,429.7,400.51,494.46-19.71,128.44-33.02,258.21-39.56,389-4,79.95-6.15,161.54-5.68,243.7-26.1-119.1-90.56-352.52-222.55-528.87-129.86-173.54-355.8-306.3-447.39-206.82-91.58,99.5-19.48,299.54,137.53,449.65,139.67,133.53,463.47,316.64,533.45,355.55,4.81,192.57,25.72,386.61,74.9,568.62,4.72,17.48,32.9,13.64,28.14-3.99-12.33-45.67-22.69-92.11-31.57-139.02,67.38-29,346.84-157.72,519.47-365.01,138.7-166.57,215.48-417.11,97.47-483.14-118.01-66.03-295.89,50.48-405.5,238.01-90.82,155.36-186.47,476.15-216.65,581.7-38.81-221.98-42.71-454.4-34.69-675.61,55.23-23.36,347.05-153.53,525.18-367.44,138.71-166.57,215.48-417.11,97.47-483.14-118.01-66.03-295.89,50.48-405.5,238.01-89.52,153.15-183.78,467.11-215.35,577.17,13.04-288.22,60.43-572.62,138.78-848.23,82.56-1.95,380.6-17.65,613.01-141.07,191.44-101.65,357.33-304.48,273.11-410.29-84.23-105.78-292.98-65.29-465.42,66.79-134.48,103.01-328.5,340.13-407.46,439.6,7.53-25.3,15.21-50.55,23.25-75.7,1.89,3.27,2.97,5.1,2.97,5.1,0,0,32.34-77.59,62.41-192.18,49.26-130.75,105.47-258.92,168.27-384.02,93.43-59.73,308.54-211.2,434.21-411.68,115.12-183.66,157.61-442.24,31.81-491.85Z"/>
        <g class="cls-14">
          <path class="cls-1" d="m3982.19,904.48c-50.63-41.43-168.15-37.49-239.1-14.78-182.38,57.61-295.7,176.87-501.21,213.7-40.64,7.5-83.05,11.4-122.12,22.29-65.45,18.22-114.57,54.39-148.51,92.77-68.2,77.55-85.6,164.03-123,248.67-37.55,84.95-103.09,178.02-212.31,231.86-52.98,26.06-113.27,40.82-161.22,73.91-99.83,69.29-101.14,180.42-93.86,271.49,6.98,91.74,3.66,204.37-77.63,276.98-22.02,19.68-48.21,34.38-68.27,56.04-48.37,52.27-46.24,126.14-38.62,189.27,27.65,232,87.23,461.01,172.29,683.02,6.73,17.61,14.44,36.23,27.37,46.74,16.62,13.5,36.31,9.7,53.78,5.64,44.09-10.29,87.72-19.25,130.85-26.98,23.31-4.18,47.51-8.71,64.73-28.47,18.63-21.37,25.89-56.27,33.02-89.14,31.23-144.93,74.62-288.8,128.7-429.35,32.89-86.97,73.1-179.4,59.91-262.7-7.02-43.68-29.98-81.4-33.28-126.07-14.88-170.28,256.28-287.43,345.38-435.35,57.27-97.81,11.79-203.57,78.98-297.75,77.82-110.53,308.41-163.8,335.7-267.55,8.67-35.13-10.3-70.49-6.78-105.88,9.67-111.48,229.65-168.95,360.88-238.73,41.2-23.05,73.76-57.51,34.34-89.62Z"/>
          <g>
            <path class="cls-5" d="m2548.03,3186.25c-.32.2-.66.36-1.01.48-2.64.89-5.37-.86-6.08-3.91-20.04-86.07-36.7-172.37-50-258.72-8.56-55.91-17.14-119.56,1.67-181.43,7.86-25.78,20.39-50.66,33.02-74.49,7.85-14.85,16.18-30.11,23.53-45.23,45.71-94.63,59.67-198.54,26.65-282.3-3.61-9.08-7.86-18.15-11.98-26.92-9.41-20.08-19.23-40.86-22.27-63.9-11.62-83.97,69.99-173.19,158.69-242.19,1.07-.84,2.14-1.69,3.22-2.53,82.45-65.47,182.67-132.21,207.99-207.89,6.66-20.3,7.43-40.88,8.22-60.79.76-18.61,1.6-37.85,7.63-57.08,19.9-64.14,94.75-119.63,171.25-168.7,82.75-53.7,165.46-99.05,187.77-158.95,5.24-14.18,6.59-28.93,7.9-43.19.9-9.83,1.85-19.99,4.14-29.99,21.34-96.56,162.26-172.44,328.96-229.68,3.95-1.37,10.02-.77,13.56,1.31,3.55,2.1,3.22,4.89-.72,6.24-163.99,55.84-302.76,129.71-323.94,223.03-2.25,9.67-3.24,19.65-4.19,29.3-1.42,14.57-2.87,29.64-8.42,44.44-23.77,62.53-112.2,110.95-193.05,163.32-74.9,47.81-148.24,101.82-167.56,163.06-5.85,18.36-6.77,37.15-7.6,55.33-.92,20.35-1.81,41.39-8.88,62.61-26.88,79.13-129.3,147.01-213.5,213.77-1.07.84-2.14,1.68-3.21,2.52-86,66.81-165.38,152.8-154.75,232.42,2.76,21.84,12.21,42.08,21.28,61.65,4.12,8.88,8.36,18.06,12.02,27.34,33.59,86.44,18.68,193.41-28.54,290.82-7.54,15.44-15.96,30.84-23.92,45.82-12.4,23.34-24.7,47.7-32.32,72.48-18.24,59.48-10.09,121.89-1.92,176.73,12.92,86.29,29.2,172.54,48.86,258.56.6,2.64-.49,5.39-2.51,6.66Z"/>
            <path class="cls-5" d="m2667.55,2042.07c-3.64.87-7.01-.32-7.74-2.83-8.23-28.49,1.29-60.14,11.24-90.49,8.3-25.53,17.4-51.74,15.35-75.62-1.83-21.17-12.52-42.33-33.3-64.62-2.02-2.16-.6-5.48,3.22-7.41,3.73-1.94,8.52-1.74,10.52.44,21.76,23.51,32.91,45.97,34.76,68.6,2.04,25.4-7.45,52.36-16.11,78.61-10.13,30.53-19.01,59.61-11.52,86.06.76,2.67-1.8,5.82-5.7,7.04-.24.08-.49.15-.72.21Z"/>
            <path class="cls-5" d="m3037.75,1556.77c-1.25.08-2.51,0-3.69-.27-4.03-.93-5.54-3.71-3.35-6.22,44.99-51.51,69.54-105.83,68-159.41-.56-18.67-4.3-37.78-7.97-56.27-8.14-41.53-17.13-84.75,12.17-126.06,1.76-2.49,7.03-3.95,11.84-3.2,4.74.73,7.14,3.35,5.33,5.84-27.95,39.02-19.79,79.23-11.71,121.53,3.62,18.67,7.32,37.97,7.77,57.04,1.32,55.17-24.29,111-70.82,163.89-1.55,1.77-4.53,2.92-7.57,3.12Z"/>
            <path class="cls-5" d="m3257.88,1412.68c-1.62-.02-3.23-.27-4.61-.8-3.79-1.45-4.52-4.34-1.61-6.47,34.42-25.16,86.43-39.79,137.24-52.5,46.84-11.79,95.75-22.7,130.64-40.95,3.32-1.73,8.95-1.71,12.6.09,3.62,1.79,3.85,4.65.53,6.38-37.34,19.4-87.81,30.59-136.15,42.72-51.19,12.79-99.04,26.24-131.09,49.5-1.85,1.34-4.71,2.05-7.53,2.03Z"/>
            <path class="cls-5" d="m2550.91,2255.67c-.36.11-.73.22-1.1.31-3.82.91-7.26.1-8.98-2.11-2.58-3.33-1.5-7.9,3.28-13.59,56.96-67.77,140.14-119.59,223.24-165.09,13.85-7.6,27.77-15.07,41.65-22.48,92.1-49.59,197.5-103.65,260.38-172.97,2.24-2.48,6.85-3.62,10.34-2.53,3.47,1.09,4.46,3.97,2.21,6.44-65.16,71.41-172.56,126.5-266.27,176.98-13.88,7.42-27.79,14.9-41.65,22.5-80.89,44.32-161.85,94.68-217.32,159.49.11.06.22.12.33.18,2.32,1.47,3.03,3.99,1.85,6.61-1.23,2.69-4.34,5.1-7.97,6.26Z"/>
            <path class="cls-5" d="m2547.9,2645.24c-.46.19-.94.34-1.45.44-3.27.6-5.96-1.39-6-4.45-.69-48.89-23.3-94.79-75.51-143.85-12.15-11.4-25.25-22.51-38.03-33.22-31.02-26.04-63.85-52.67-87.71-85.81-1.72-2.38-.46-6.03,2.8-8.14,3.31-2.11,7.29-1.89,8.98.49,23.04,32.27,55.27,58.63,85.74,84.39,12.81,10.8,25.94,22.01,38.17,33.57,53.81,50.94,76.9,98.93,77.43,150.39.02,2.58-1.85,5.1-4.42,6.18Z"/>
            <path class="cls-5" d="m2499.16,2944.14c-.12.07-.25.12-.38.19-2.84,1.29-5.88-.02-6.79-2.93-7.38-23.51,3.54-51.65,34.89-84.63,20.62-21.69,43.13-42.44,65.33-62.08,54.72-48.47,113.67-95.69,159.61-152.78,8.43-10.48,17.74-22.87,22.11-36.05.98-2.96,4.27-5.07,7.34-4.65,3.07.39,4.74,3.12,3.75,6.08-5.07,15.15-15.29,28.78-24.48,40.21-47.06,58.46-106.53,106.2-161.72,155.2-21.99,19.51-44.28,40.11-64.6,61.53-27.78,29.3-37.82,53.37-31.91,72.51.86,2.77-.54,6-3.14,7.41Z"/>
          </g>
        </g>
        <path class="cls-10" d="m1886.68,2778.06c-33.64-67.14-68.39-133.35-103.91-198.46-36.56-67-74.84-132.94-114.56-197.81,32.72-124.04,182.74-399.61,176.19-590.23-7.28-211.31-301.59-560.29-301.59-560.29,68.01,126.34,38.59,350.44-.72,601.09-24.17,154.18,26.73,339.62,69.53,459.62-74.34-114.83-154.08-225.27-239.46-329.98-12.79-170.92,49.28-504.2-4.57-683.1-61.39-204.01-287.89-427.01-287.89-427.01,99.16,157.25,98.68,525.03,118.14,732.01,9.05,96.23,49.61,198,90.39,279.38-94.99-107.49-196.48-207.87-305.15-299.08.05-.01.33.03.33.03-71.82-177.38-232.35-378.8-466.02-417.26C283.74,1108.5,0,1012.97,0,1012.97c205.31,403.84,748.82,517.16,926.23,543.89,100.64,81.32,195.15,170.36,283.95,265.82-97.74-57.71-262.3-139.6-397.92-131.32-207.45,12.64-382.67,20.61-444.26-49.24,0,0,383.78,539.63,903.3,248.15,123.32,140.65,235.49,293.33,337.75,454.13-87.17-63.58-402.78-261.4-809.92-134.58,0,0,393.14,282.64,823.53,156.19,52.31,83.27,102.12,168.55,149.49,255.36,36.46,66.82,71.91,135.04,106.11,204.34-86.16-54.76-281.6-165.67-438.41-156.11-207.45,12.64-382.67,20.6-444.24-49.25,0,0,383.88,539.78,903.51,248.05,75.53,156.88,143.38,319.8,196.54,488.61,5.22,16.55,31.48,5.78,26.23-10.88-56.46-179.4-129.37-351.46-210.22-517.31,244.46-267.89,167.77-561.39,115.47-711.25-53.53-153.4-47.46-303.97-47.46-303.97-133.72,332.22-108.66,791.68-92.99,964.47Z"/>
      </g>
      <path class="cls-7" d="m2828.76,1622.93v738.46c0,23.09-7.93,43.54-23.8,61.3-15.87,17.81-35.34,28.12-58.41,31.02l-1505.78,175.95c12.49,57.69,18.76,91.37,18.76,100.97,0,15.39-11.54,46.15-34.63,92.3h1326.93c24.99,0,46.62,9.17,64.91,27.41,18.24,18.29,27.39,39.93,27.39,64.91s-9.14,46.65-27.39,64.89c-18.29,18.29-39.93,27.41-64.91,27.41h-1476.92c-25.01,0-46.65-9.12-64.91-27.41-18.26-18.24-27.41-39.88-27.41-64.89,0-10.57,3.85-25.72,11.54-45.44,7.7-19.69,15.37-37,23.09-51.92,7.67-14.89,18.03-34.13,31-57.69,12.99-23.56,20.43-37.72,22.37-42.54l-255.31-1187.03h-294.23c-25.01,0-46.65-9.12-64.89-27.41-18.29-18.24-27.41-39.88-27.41-64.89s9.12-46.65,27.41-64.91c18.24-18.27,39.88-27.41,64.89-27.41h369.24c15.37,0,29.07,3.14,41.11,9.38,11.99,6.27,21.38,13.7,28.12,22.35,6.72,8.65,12.97,20.45,18.74,35.34,5.77,14.92,9.6,27.41,11.54,37.5,1.92,10.09,4.56,24.3,7.93,42.54,3.35,18.29,5.51,30.78,6.48,37.5h1732.22c24.99,0,46.62,9.14,64.89,27.41,18.26,18.26,27.41,39.9,27.41,64.89Zm-1531.74,1439.44c36.53,36.55,54.82,79.83,54.82,129.8s-18.29,93.25-54.82,129.8c-36.55,36.53-79.81,54.82-129.8,54.82s-93.27-18.29-129.8-54.82c-36.55-36.55-54.82-79.83-54.82-129.8s18.26-93.25,54.82-129.8c36.53-36.53,79.81-54.82,129.8-54.82s93.25,18.29,129.8,54.82Zm1292.32,0c36.53,36.55,54.79,79.83,54.79,129.8s-18.26,93.25-54.79,129.8c-36.55,36.53-79.83,54.82-129.8,54.82s-93.3-18.29-129.83-54.82c-36.55-36.55-54.79-79.83-54.79-129.8s18.24-93.25,54.79-129.8c36.53-36.53,79.81-54.82,129.83-54.82s93.25,18.29,129.8,54.82Z"/>
      <g>
        <path class="cls-11" d="m1283.84,2932.65c-58.4,0-113.37-30.06-144.67-79.57-32.5-51.39-35.15-116.83-6.92-170.79,1.05-2.01,3.1-3.31,5.37-3.4,60.93-2.29,118.84,28.07,151.34,79.45h0c32.49,51.38,35.14,116.82,6.9,170.77-1.05,2.01-3.1,3.31-5.37,3.4-2.22.08-4.44.13-6.65.13Zm-142.03-241.18c-24.34,49.31-21.35,108.3,8.07,154.83,29.42,46.53,81.55,74.5,136.42,73.64,24.34-49.31,21.36-108.29-8.06-154.81h0c-29.43-46.54-81.36-74.3-136.43-73.67Z"/>
        <path class="cls-11" d="m1331.6,2935.9c-2.25,0-4.34-1.2-5.48-3.15-30.69-52.6-31.05-118.1-.95-170.93,30.1-52.82,86.62-85.89,147.51-86.31,2.33.36,4.38,1.19,5.52,3.15,30.69,52.6,31.06,118.09.96,170.9h0c-30.1,52.83-86.63,85.91-147.52,86.34h-.04Zm137.48-247.63c-54.96,1.67-105.63,32.01-132.88,79.83-27.26,47.84-27.53,106.91-.94,155.04,54.96-1.67,105.64-32.02,132.9-79.86h0c27.25-47.83,27.51-106.89.93-155.02Zm4.58,158.16h.09-.09Z"/>
        <rect class="cls-8" x="969.38" y="2817.64" width="656.26" height="555.59"/>
        <rect class="cls-11" x="934.92" y="2808" width="732.53" height="60.95"/>
        <rect class="cls-11" x="1024.09" y="3059.7" width="566.1" height="60.95" transform="translate(4397.31 1783.04) rotate(90)"/>
      </g>
      <g>
        <path class="cls-11" d="m1792.63,3097.08c-36.6,0-71.06-18.84-90.68-49.87-20.37-32.21-22.03-73.23-4.34-107.05.66-1.26,1.94-2.07,3.36-2.13,38.19-1.43,74.49,17.59,94.86,49.8h0c20.37,32.2,22.02,73.22,4.33,107.04-.66,1.26-1.94,2.07-3.36,2.13-1.39.05-2.78.08-4.17.08Zm-89.02-151.17c-15.26,30.91-13.38,67.88,5.06,97.05,18.44,29.16,51.12,46.7,85.51,46.16,15.26-30.91,13.39-67.88-5.05-97.03h0c-18.45-29.17-51-46.57-85.51-46.17Z"/>
        <path class="cls-11" d="m1822.57,3099.11c-1.41,0-2.72-.75-3.43-1.97-19.24-32.97-19.46-74.02-.6-107.14,18.87-33.11,54.29-53.84,92.46-54.1,1.46.22,2.75.74,3.46,1.97,19.23,32.97,19.47,74.02.6,107.12h0c-18.87,33.12-54.3,53.85-92.47,54.12h-.03Zm86.17-155.22c-34.45,1.04-66.21,20.06-83.29,50.04-17.08,29.99-17.25,67.01-.59,97.18,34.45-1.05,66.21-20.07,83.3-50.05h0c17.08-29.98,17.24-67,.58-97.17Zm2.87,99.13h.06-.06Z"/>
        <rect class="cls-4" x="1595.53" y="3024.99" width="411.34" height="348.24"/>
        <rect class="cls-11" x="1573.93" y="3018.95" width="459.15" height="38.2"/>
        <rect class="cls-11" x="1629.82" y="3176.71" width="354.83" height="38.2" transform="translate(5003.05 1388.57) rotate(90)"/>
      </g>
      <g>
        <path class="cls-11" d="m1769.8,3097.08c-36.6,0-71.06-18.84-90.68-49.87-20.37-32.21-22.03-73.23-4.34-107.05.66-1.26,1.94-2.07,3.36-2.13,38.19-1.43,74.49,17.59,94.86,49.8h0c20.37,32.2,22.02,73.22,4.33,107.04-.66,1.26-1.94,2.07-3.36,2.13-1.39.05-2.78.08-4.17.08Zm-89.02-151.17c-15.26,30.91-13.38,67.88,5.06,97.05,18.44,29.16,51.12,46.7,85.51,46.16,15.26-30.91,13.39-67.88-5.05-97.03h0c-18.45-29.17-51-46.57-85.51-46.17Z"/>
        <path class="cls-11" d="m1799.74,3099.11c-1.41,0-2.72-.75-3.43-1.97-19.24-32.97-19.46-74.02-.6-107.14,18.87-33.11,54.29-53.84,92.46-54.1,1.46.22,2.75.74,3.46,1.97,19.23,32.97,19.47,74.02.6,107.12h0c-18.87,33.12-54.3,53.85-92.47,54.12h-.03Zm86.17-155.22c-34.45,1.04-66.21,20.06-83.29,50.04-17.08,29.99-17.26,67.01-.59,97.18,34.45-1.05,66.21-20.07,83.3-50.05h0c17.08-29.98,17.24-67,.58-97.17Zm2.87,99.13h.06-.06Z"/>
        <rect class="cls-8" x="1572.7" y="3024.99" width="411.34" height="348.24"/>
        <rect class="cls-11" x="1551.1" y="3018.95" width="459.15" height="38.2"/>
        <rect class="cls-11" x="1606.99" y="3176.71" width="354.83" height="38.2" transform="translate(4980.22 1411.4) rotate(90)"/>
      </g>
      <g>
        <path class="cls-11" d="m2245.49,2912.22c-58.26,3.99-115.16-22.26-149.77-69.51-35.93-49.05-43.04-114.16-18.56-169.92.91-2.08,2.87-3.51,5.12-3.76,60.64-6.44,120.48,19.89,156.41,68.94h0c35.92,49.04,43.03,114.15,18.54,169.9-.91,2.08-2.87,3.51-5.12,3.76-2.21.24-4.42.43-6.63.59Zm-158.16-230.93c-20.92,50.86-13.91,109.5,18.62,153.92,32.53,44.41,86.45,68.76,141.12,64.16,20.92-50.85,13.92-109.5-18.61-153.9h0c-32.54-44.42-86.24-68.57-141.14-64.18Z"/>
        <path class="cls-11" d="m2293.37,2912.2c-2.25.15-4.41-.9-5.68-2.77-34.21-50.38-39.04-115.7-12.61-170.46,26.42-54.75,80.55-91.61,141.28-96.18,2.35.2,4.45.88,5.72,2.76,34.2,50.38,39.04,115.69,12.63,170.44h0c-26.43,54.76-80.57,91.63-141.29,96.2-.01,0-.03,0-.04,0Zm120.25-256.44c-54.72,5.41-103.2,39.14-127.12,88.72-23.93,49.59-20.17,108.54,9.64,154.75,54.72-5.42,103.2-39.16,127.14-88.74h0c23.92-49.58,20.15-108.52-9.65-154.72Zm15.37,157.48h.09s-.09,0-.09,0Z"/>
        <rect class="cls-8" x="1942.11" y="2795.89" width="656.26" height="555.59" transform="translate(-204.47 162.1) rotate(-3.91)"/>
        <rect class="cls-11" x="1890.11" y="2786.61" width="732.53" height="60.95" transform="translate(-186.99 160.56) rotate(-3.91)"/>
        <rect class="cls-11" x="1996.44" y="3037.31" width="566.1" height="60.95" transform="translate(5184.56 584.24) rotate(86.09)"/>
      </g>
      <g>
        <path class="cls-11" d="m2742.75,3084.27c-36.52,2.5-72.18-13.95-93.87-43.57-22.52-30.74-26.98-71.56-11.63-106.51.57-1.3,1.8-2.2,3.21-2.35,38.01-4.04,75.52,12.47,98.04,43.21h0c22.52,30.74,26.97,71.55,11.62,106.49-.57,1.3-1.8,2.2-3.21,2.35-1.39.15-2.77.27-4.15.37Zm-99.13-144.74c-13.11,31.88-8.72,68.64,11.67,96.48,20.39,27.84,54.18,43.1,88.46,40.22,13.11-31.88,8.73-68.63-11.66-96.46h0c-20.39-27.84-54.06-42.98-88.47-40.23Z"/>
        <path class="cls-11" d="m2772.76,3084.26c-1.41.1-2.77-.56-3.56-1.73-21.44-31.58-24.47-72.52-7.91-106.85,16.56-34.32,50.49-57.42,88.55-60.28,1.47.12,2.79.55,3.59,1.73,21.44,31.58,24.47,72.51,7.91,106.83h0c-16.56,34.33-50.5,57.43-88.56,60.3h-.03Zm75.38-160.73c-34.3,3.39-64.68,24.53-79.68,55.61-15,31.09-12.64,68.03,6.04,96.99,34.3-3.4,64.69-24.54,79.69-55.62h0c14.99-31.08,12.63-68.02-6.05-96.98Zm9.63,98.71h.06s-.06,0-.06,0Z"/>
        <rect class="cls-4" x="2552.59" y="3011.36" width="411.34" height="348.24" transform="translate(-210.97 195.67) rotate(-3.91)"/>
        <rect class="cls-11" x="2520" y="3005.53" width="459.15" height="38.2" transform="translate(-200.01 194.7) rotate(-3.91)"/>
        <rect class="cls-11" x="2586.65" y="3162.67" width="354.83" height="38.2" transform="translate(5749.78 207.02) rotate(86.09)"/>
      </g>
      <g>
        <path class="cls-11" d="m2737.51,3084.27c-36.52,2.5-72.18-13.95-93.87-43.57-22.52-30.74-26.98-71.56-11.63-106.51.57-1.3,1.8-2.2,3.21-2.35,38.01-4.04,75.52,12.47,98.04,43.21h0c22.52,30.74,26.97,71.55,11.62,106.49-.57,1.3-1.8,2.2-3.21,2.35-1.39.15-2.77.27-4.15.37Zm-99.13-144.74c-13.11,31.88-8.72,68.64,11.67,96.48,20.39,27.84,54.18,43.1,88.46,40.22,13.11-31.88,8.73-68.63-11.66-96.46h0c-20.39-27.84-54.06-42.98-88.47-40.23Z"/>
        <path class="cls-11" d="m2767.52,3084.26c-1.41.1-2.77-.56-3.56-1.73-21.44-31.58-24.47-72.52-7.91-106.85,16.56-34.32,50.49-57.42,88.55-60.28,1.47.12,2.79.55,3.59,1.73,21.44,31.58,24.47,72.51,7.91,106.83h0c-16.56,34.33-50.5,57.43-88.56,60.3,0,0-.02,0-.03,0Zm75.38-160.73c-34.3,3.39-64.68,24.53-79.68,55.61-15,31.09-12.64,68.03,6.04,96.99,34.3-3.4,64.69-24.54,79.69-55.62h0c14.99-31.08,12.63-68.02-6.05-96.98Zm9.63,98.71h.06s-.06,0-.06,0Z"/>
        <rect class="cls-8" x="2547.35" y="3011.36" width="411.34" height="348.24" transform="translate(-210.98 195.31) rotate(-3.91)"/>
        <rect class="cls-11" x="2514.76" y="3005.53" width="459.15" height="38.2" transform="translate(-200.02 194.34) rotate(-3.91)"/>
        <rect class="cls-11" x="2581.4" y="3162.67" width="354.83" height="38.2" transform="translate(5744.9 212.24) rotate(86.09)"/>
      </g>
      <g>
        <path class="cls-11" d="m2165.11,3097.08c-36.6,0-71.06-18.84-90.68-49.87-20.37-32.21-22.03-73.23-4.34-107.05.66-1.26,1.94-2.07,3.36-2.13,38.19-1.43,74.49,17.59,94.86,49.8h0c20.37,32.2,22.02,73.22,4.33,107.04-.66,1.26-1.94,2.07-3.36,2.13-1.39.05-2.78.08-4.17.08Zm-89.02-151.17c-15.26,30.91-13.38,67.88,5.06,97.05,18.44,29.16,51.12,46.7,85.51,46.16,15.26-30.91,13.39-67.88-5.05-97.03h0c-18.45-29.17-51-46.57-85.51-46.17Z"/>
        <path class="cls-11" d="m2195.05,3099.11c-1.41,0-2.72-.75-3.43-1.97-19.24-32.97-19.46-74.02-.6-107.14,18.87-33.11,54.29-53.84,92.46-54.1,1.46.22,2.75.74,3.46,1.97,19.23,32.97,19.47,74.02.6,107.12h0c-18.87,33.12-54.3,53.85-92.47,54.12h-.03Zm86.17-155.22c-34.45,1.04-66.21,20.06-83.29,50.04-17.08,29.99-17.26,67.01-.59,97.18,34.45-1.05,66.21-20.07,83.3-50.05h0c17.08-29.98,17.24-67,.58-97.17Zm2.87,99.13h.06-.06Z"/>
        <rect class="cls-8" x="1968.01" y="3024.99" width="411.34" height="348.24"/>
        <rect class="cls-11" x="1946.41" y="3018.95" width="459.15" height="38.2"/>
        <rect class="cls-11" x="2002.3" y="3176.71" width="354.83" height="38.2" transform="translate(5375.53 1016.1) rotate(90)"/>
      </g>
      <g>
        <g>
          <g>
            <path class="cls-12" d="m3391.38,2881.73c-.22,1.52-.45,3.05-.69,4.54-2.17,13.84-4.92,27.63-8.26,41.35-12.35,50.61-32.85,100.17-61.84,146.85l-71.3,114.71-39.19,63.08-52.58,84.58-11.8,18.99c-3.85-2.41-7.67-4.84-11.44-7.37-36.68-24.13-69.21-52.31-97.37-83.56-10.19-11.3-19.78-22.99-28.8-35.03-39.91-53.29-68.47-113.55-84.78-176.91-2.5-9.63-4.68-19.34-6.58-29.11-15.81-80.66-12.04-165.29,13.1-246.21,2.42-7.81,5.05-15.6,7.84-23.33,11.76-32.15,26.94-63.58,45.74-93.81l21.17-34.03,12.18-19.63,129.76-208.75,11.79-18.94.05-.02c3.85,2.41,7.64,4.83,11.39,7.36,38.93,25.6,73.18,55.8,102.51,89.35,5.42,6.19,10.64,12.51,15.71,18.94,42.75,54.07,73.47,115.89,91.13,181.14,2.38,8.83,4.55,17.74,6.45,26.71,12.48,58.46,14.66,119.14,5.83,179.11Z"/>
            <path class="cls-6" d="m3157.51,3336.84l-11.8,18.99c-3.85-2.41-7.67-4.84-11.44-7.37l.6-47.98.33-24.46,1.48-116.35.33-25.68,2.43-187.26.37-29.33,2.66-205.26.34-26.95,3.71-287.1,11.79-18.94.05-.02,11.39,7.36-3.49,271.72-.61,46.99-2.54,197.39-.43,33.94-2.41,186.64-.44,33.63-1.41,108.66-.39,30.5-.52,40.88Z"/>
            <path class="cls-6" d="m3287.97,2494.78l-122.33,210.42-3.13,5.4c-1.56,2.7-4.16,4.65-7.2,5.4-1.48.38-3,.44-4.47.22-1.55-.23-3.05-.76-4.41-1.61l-3.97-2.48-137.89-85.66,12.18-19.63,126.05,78.34,5.71,3.54,17.75-30.51,106.01-182.37c5.42,6.19,10.64,12.51,15.71,18.94Z"/>
            <path class="cls-6" d="m3385.55,2702.62l-222.87,233.91-8.28,8.69c-2.69,2.79-6.45,3.98-10.05,3.45-1.73-.25-3.42-.89-4.9-1.94-.21-.14-.44-.32-.66-.49l-208.95-168.59c2.42-7.81,5.05-15.6,7.84-23.33l202.14,163.08,5.19,4.19,18.1-19,216-226.67c2.38,8.83,4.55,17.74,6.45,26.71Z"/>
            <path class="cls-6" d="m3390.69,2886.27c-2.17,13.84-4.92,27.63-8.26,41.35l-222.59,229.17-3.55,3.65c-2.63,2.7-6.36,3.91-9.97,3.38-1.19-.18-2.36-.55-3.49-1.11l-6.14-3.06-213.37-106.7c-2.5-9.63-4.68-19.34-6.58-29.11l220.28,110.13,8.58,4.3,14.68-15.12,228.74-235.51c.52-.55,1.09-1.03,1.68-1.39Z"/>
            <path class="cls-6" d="m3249.27,3189.18l-39.19,63.08-52.06,43.7-5.65,4.74c-2.55,2.14-5.87,3.05-9.1,2.58-.76-.11-1.51-.3-2.25-.56l-6.16-2.23-97.98-35.59c-10.19-11.3-19.78-22.99-28.8-35.03l127.11,46.15,7.44,2.7,15.78-13.27,90.86-76.27Z"/>
          </g>
          <g>
            <path class="cls-3" d="m3484.13,3226.24c-.85.64-1.7,1.28-2.54,1.89-7.78,5.74-15.81,11.17-24.11,16.29-30.61,18.85-64.7,33.23-101.57,42.07l-90.63,21.72-49.83,11.95-66.83,16.01-15,3.6c-.72-3.05-1.42-6.09-2.04-9.17-6.3-29.63-8.6-59.24-7.26-88.24.48-10.49,1.44-20.88,2.86-31.16,6.26-45.51,21.47-88.94,44.2-127.94,3.44-5.94,7.08-11.76,10.89-17.48,31.37-47.25,74.26-86.96,125.84-114.48,4.98-2.66,10.04-5.21,15.17-7.65,21.36-10.07,44.06-18.14,67.95-23.86l26.89-6.43,15.5-3.73,164.93-39.52,14.97-3.58.04.02c.72,3.05,1.41,6.08,2.02,9.14,6.69,31.44,8.85,62.88,6.97,93.57-.34,5.67-.85,11.3-1.48,16.91-5.24,47.27-20.15,92.51-43.13,133.1-3.11,5.49-6.37,10.91-9.79,16.23-22.23,34.75-50.59,65.58-84.01,90.73Z"/>
            <path class="cls-6" d="m3148.62,3336.16l-15,3.6c-.72-3.05-1.42-6.09-2.04-9.17l23.57-23.25,12.03-11.85,57.16-56.38,12.62-12.44,92.02-90.73,14.41-14.21,100.86-99.44,13.24-13.07,141.07-139.1,14.97-3.58.04.02,2.02,9.14-133.5,131.66-23.09,22.76-96.98,95.64-16.67,16.45-91.71,90.43-16.53,16.29-53.4,52.64-14.98,14.78-20.08,19.81Z"/>
            <path class="cls-6" d="m3621.06,2986.18l-162.09,43.94-4.16,1.13c-2.08.57-4.3.27-6.15-.84-.91-.53-1.68-1.24-2.3-2.06-.65-.86-1.13-1.85-1.38-2.93l-.75-3.14-26.13-108.92,15.5-3.73,23.87,99.59,1.08,4.5,23.51-6.37,140.48-38.09c-.34,5.67-.85,11.3-1.48,16.91Z"/>
            <path class="cls-6" d="m3568.14,3135.51l-222.83,6.7-8.28.25c-2.68.06-5.09-1.17-6.61-3.18-.72-.96-1.25-2.1-1.46-3.33-.04-.17-.06-.38-.09-.56l-20.78-184.09c4.98-2.66,10.04-5.21,15.17-7.65l20.11,178.07.52,4.57,18.1-.54,215.95-6.48c-3.11,5.49-6.37,10.91-9.79,16.23Z"/>
            <path class="cls-6" d="m3481.59,3228.13c-7.78,5.74-15.81,11.17-24.11,16.29l-220.4,4.51-3.51.07c-2.6.05-5.02-1.16-6.53-3.17-.5-.66-.89-1.42-1.18-2.24l-1.53-4.48-52.96-155.85c3.44-5.94,7.08-11.76,10.89-17.48l54.69,160.89,2.12,6.27,14.53-.3,226.48-4.64c.52-.02,1.03.02,1.5.14Z"/>
            <path class="cls-6" d="m3265.27,3308.2l-49.83,11.95-46.74-3.8-5.08-.41c-2.29-.18-4.36-1.35-5.71-3.15-.32-.42-.6-.88-.83-1.37l-1.94-4.08-30.82-64.98c.48-10.49,1.44-20.88,2.86-31.16l40,84.3,2.34,4.93,14.18,1.14,81.59,6.63Z"/>
          </g>
          <g>
            <path class="cls-13" d="m2992.84,2948.49c.78.99,1.56,1.99,2.31,2.98,7.03,9.12,13.69,18.55,19.98,28.3,23.19,35.97,41.15,76.21,52.59,119.89l28.08,107.36,15.45,59.02,20.7,79.16,4.65,17.77c-3.61.93-7.22,1.84-10.86,2.66-35.12,8.23-70.31,11.69-104.87,10.81-12.5-.32-24.89-1.2-37.17-2.63-54.33-6.33-106.41-23.37-153.4-49.47-7.15-3.95-14.17-8.14-21.08-12.53-57.03-36.18-105.35-86.27-139.38-147-3.29-5.86-6.45-11.83-9.48-17.87-12.52-25.18-22.67-52.01-30.07-80.3l-8.32-31.86-4.82-18.36-51.1-195.38-4.63-17.73.02-.04c3.61-.93,7.2-1.82,10.83-2.63,37.27-8.74,74.64-12.09,111.22-10.61,6.75.27,13.47.73,20.17,1.34,56.41,5.08,110.63,21.71,159.51,48.07,6.61,3.57,13.15,7.32,19.57,11.26,41.91,25.61,79.32,58.62,110.08,97.78Z"/>
            <path class="cls-6" d="m3131.96,3345.21l4.65,17.77c-3.61.93-7.22,1.84-10.86,2.66l-28.26-27.48-14.4-14.03-68.53-66.66-15.13-14.72-110.27-107.31-17.28-16.81-120.87-117.62-15.88-15.44-169.07-164.51-4.63-17.73.02-.04,10.83-2.63,160.02,155.69,27.67,26.93,116.25,113.1,19.99,19.45,109.91,106.95,19.8,19.27,63.98,62.27,17.96,17.47,24.08,23.42Z"/>
            <path class="cls-6" d="m2703.68,2791.39l56.3,191.89,1.45,4.92c.73,2.46.42,5.11-.85,7.35-.61,1.1-1.43,2.04-2.39,2.79-1.01.79-2.18,1.39-3.45,1.72l-3.72.96-129.03,33.78-4.82-18.36,117.97-30.86,5.33-1.4-8.16-27.83-48.8-166.3c6.75.27,13.47.73,20.17,1.34Z"/>
            <path class="cls-6" d="m2882.75,2850.71l13.46,265.11.5,9.85c.14,3.19-1.27,6.09-3.63,7.94-1.13.89-2.47,1.54-3.93,1.83-.2.05-.45.08-.66.12l-218.64,29.27c-3.29-5.86-6.45-11.83-9.48-17.87l211.5-28.32,5.43-.73-1.09-21.53-13.03-256.92c6.61,3.57,13.15,7.32,19.57,11.26Z"/>
            <path class="cls-6" d="m2995.15,2951.47c7.03,9.12,13.69,18.55,19.98,28.3l10.8,262.27.17,4.18c.12,3.09-1.26,6.01-3.62,7.85-.78.61-1.66,1.09-2.64,1.46l-5.29,1.93-184.24,66.89c-7.15-3.95-14.17-8.14-21.08-12.53l190.19-69.07,7.41-2.68-.72-17.29-11.1-269.51c-.03-.62,0-1.23.12-1.79Z"/>
            <path class="cls-6" d="m3095.8,3207.03l15.45,59.02-3.38,55.74-.37,6.05c-.16,2.73-1.5,5.23-3.6,6.88-.5.39-1.03.73-1.61,1.02l-4.81,2.41-76.6,38.29c-12.5-.32-24.89-1.2-37.17-2.63l99.37-49.69,5.82-2.91,1.01-16.91,5.89-97.29Z"/>
          </g>
        </g>
        <g>
          <g>
            <path class="cls-3" d="m1257.11,2999.83c-.53,1.22-1.06,2.44-1.61,3.62-4.94,11.04-10.36,21.89-16.26,32.56-21.76,39.34-50.06,75.97-84.79,108.27l-85.39,79.37-46.94,43.64-62.96,58.52-14.13,13.14c-2.66-2.88-5.29-5.77-7.86-8.73-25.08-28.41-45.78-59.25-62.15-91.66-5.92-11.72-11.26-23.63-16.04-35.7-21.16-53.43-31.28-110.08-30.5-166.54.1-8.59.49-17.16,1.12-25.74,5.12-70.76,27.44-140.38,66.72-202.07,3.79-5.96,7.74-11.85,11.82-17.65,17.08-24.1,36.85-46.84,59.36-67.76l25.34-23.54,14.59-13.59,155.38-144.43,14.11-13.1h.05c2.66,2.87,5.27,5.76,7.82,8.71,26.62,30.14,48.3,63.06,65.12,97.65,3.11,6.39,6.02,12.83,8.79,19.33,23.35,54.72,34.92,113.17,34.83,171.51-.02,7.9-.23,15.8-.69,23.7-2.86,51.52-14.8,102.54-35.75,150.48Z"/>
            <path class="cls-6" d="m959.18,3325.82l-14.13,13.14c-2.66-2.88-5.29-5.77-7.86-8.73l11.38-39.82,5.82-20.3,27.61-96.56,6.1-21.31,44.47-155.4,6.96-24.34,48.74-170.33,6.39-22.37,68.17-238.25,14.11-13.1h.05s7.82,8.71,7.82,8.71l-64.5,225.49-11.16,38.99-46.86,163.81-8.05,28.17-44.32,154.89-7.99,27.91-25.81,90.17-7.24,25.31-9.7,33.93Z"/>
            <path class="cls-6" d="m1258.71,2654.13l-149.57,147.5-3.83,3.79c-1.92,1.89-4.52,2.93-7.22,2.86-1.32-.02-2.59-.31-3.77-.83-1.24-.54-2.37-1.33-3.31-2.34l-2.74-2.96-95.42-102.6,14.59-13.59,87.22,93.82,3.95,4.24,21.69-21.39,129.62-127.84c3.11,6.39,6.02,12.83,8.79,19.33Z"/>
            <path class="cls-6" d="m1292.86,2849.34l-238.63,144.27-8.87,5.36c-2.88,1.72-6.27,1.85-9.15.59-1.38-.6-2.65-1.52-3.64-2.73-.15-.16-.3-.37-.44-.55l-135.79-187.77c3.79-5.96,7.74-11.85,11.82-17.65l131.37,181.63,3.38,4.67,19.38-11.72,231.26-139.8c-.02,7.9-.23,15.8-.69,23.7Z"/>
            <path class="cls-6" d="m1255.51,3003.45c-4.94,11.04-10.36,21.89-16.26,32.56l-237.32,140.4-3.78,2.24c-2.8,1.65-6.18,1.82-9.07.56-.95-.42-1.84-1-2.66-1.72l-4.42-3.94-153.5-137.23c.1-8.59.49-17.16,1.12-25.74l158.48,141.65,6.17,5.52,15.65-9.26,243.88-144.28c.56-.34,1.14-.61,1.72-.77Z"/>
            <path class="cls-6" d="m1069.07,3223.65l-46.94,43.64-53.26,24.59-5.78,2.67c-2.61,1.21-5.58,1.21-8.16.09-.61-.27-1.19-.59-1.75-.98l-4.62-3.25-73.53-51.85c-5.92-11.72-11.26-23.63-16.04-35.7l95.39,67.25,5.58,3.94,16.15-7.47,92.96-42.92Z"/>
          </g>
          <g>
            <path class="cls-13" d="m808.22,2924.17c.78.99,1.56,1.99,2.31,2.98,7.03,9.12,13.69,18.55,19.98,28.3,23.19,35.97,41.15,76.21,52.59,119.89l28.08,107.36,15.45,59.02,20.7,79.16,4.65,17.77c-3.61.93-7.22,1.84-10.86,2.66-35.12,8.23-70.31,11.69-104.87,10.81-12.5-.32-24.89-1.2-37.17-2.63-54.33-6.33-106.41-23.37-153.4-49.47-7.15-3.95-14.17-8.14-21.08-12.53-57.03-36.18-105.35-86.27-139.38-147-3.29-5.86-6.45-11.83-9.48-17.87-12.52-25.18-22.67-52.01-30.07-80.3l-8.32-31.86-4.82-18.36-51.1-195.38-4.63-17.73.02-.04c3.61-.93,7.2-1.82,10.83-2.63,37.27-8.74,74.64-12.09,111.22-10.61,6.75.27,13.47.73,20.17,1.34,56.41,5.08,110.63,21.71,159.51,48.07,6.61,3.57,13.15,7.32,19.57,11.26,41.91,25.61,79.32,58.62,110.08,97.78Z"/>
            <path class="cls-6" d="m947.34,3320.89l4.65,17.77c-3.61.93-7.22,1.84-10.86,2.66l-28.26-27.48-14.4-14.03-68.53-66.66-15.13-14.72-110.27-107.31-17.28-16.81-120.87-117.62-15.88-15.44-169.07-164.51-4.63-17.73.02-.04,10.83-2.63,160.02,155.69,27.67,26.93,116.25,113.1,19.99,19.45,109.91,106.95,19.8,19.27,63.98,62.27,17.96,17.47,24.08,23.42Z"/>
            <path class="cls-6" d="m519.06,2767.07l56.3,191.89,1.45,4.92c.73,2.46.42,5.11-.85,7.35-.61,1.1-1.43,2.04-2.39,2.79-1.01.79-2.18,1.39-3.45,1.72l-3.72.96-129.03,33.78-4.82-18.36,117.97-30.86,5.33-1.4-8.16-27.83-48.8-166.3c6.75.27,13.47.73,20.17,1.34Z"/>
            <path class="cls-6" d="m698.14,2826.39l13.46,265.11.5,9.85c.14,3.19-1.27,6.09-3.63,7.94-1.13.89-2.47,1.54-3.93,1.83-.2.05-.45.08-.66.12l-218.64,29.27c-3.29-5.86-6.45-11.83-9.48-17.87l211.5-28.32,5.43-.73-1.09-21.53-13.03-256.92c6.61,3.57,13.15,7.32,19.57,11.26Z"/>
            <path class="cls-6" d="m810.54,2927.15c7.03,9.12,13.69,18.55,19.98,28.3l10.8,262.27.17,4.18c.12,3.09-1.26,6.01-3.62,7.85-.78.61-1.66,1.09-2.64,1.45l-5.29,1.93-184.24,66.89c-7.15-3.95-14.17-8.14-21.08-12.53l190.19-69.07,7.41-2.68-.72-17.29-11.1-269.51c-.03-.62,0-1.23.12-1.79Z"/>
            <path class="cls-6" d="m911.19,3182.71l15.45,59.02-3.38,55.74-.37,6.05c-.16,2.73-1.5,5.23-3.6,6.88-.5.39-1.03.73-1.61,1.02l-4.81,2.41-76.6,38.3c-12.5-.32-24.89-1.2-37.17-2.63l99.37-49.69,5.82-2.91,1.01-16.91,5.89-97.29Z"/>
          </g>
        </g>
      </g>
    </g>
  </g>
</svg>